<?xml version="1.0" encoding="utf-8"?>
<!-- Generator: Adobe Illustrator 26.5.0, SVG Export Plug-In . SVG Version: 6.00 Build 0)  -->
<svg version="1.1" id="Capa_1" xmlns="http://www.w3.org/2000/svg" xmlns:xlink="http://www.w3.org/1999/xlink" x="0px" y="0px"
	 viewBox="0 0 269.82 40.4" style="enable-background:new 0 0 269.82 40.4;" xml:space="preserve">
<style type="text/css">
	.st0{fill:#1176A5;}
</style>
<g>
	<g>
		<path class="st0" d="M28.75,24.63H13.01l-3.26,7.4H5.39L18.81,2.41H23l13.46,29.62h-4.44L28.75,24.63z M27.27,21.24L20.88,6.73
			l-6.39,14.51H27.27z"/>
		<path class="st0" d="M61.54,19.13v12.91h-4.06V19.59c0-4.4-2.2-6.56-6.05-6.56c-4.32,0-7.11,2.58-7.11,7.45v11.55h-4.06V9.6h3.89
			v3.39c1.65-2.29,4.53-3.6,8.08-3.6C57.69,9.39,61.54,12.52,61.54,19.13z"/>
		<path class="st0" d="M67.12,20.82c0-6.69,4.95-11.42,11.85-11.42c4.02,0,7.36,1.65,9.14,4.78l-3.09,1.99
			c-1.44-2.2-3.64-3.22-6.09-3.22c-4.4,0-7.7,3.09-7.7,7.87c0,4.87,3.3,7.91,7.7,7.91c2.45,0,4.65-1.02,6.09-3.22l3.09,1.95
			c-1.78,3.13-5.12,4.82-9.14,4.82C72.07,32.28,67.12,27.5,67.12,20.82z"/>
		<path class="st0" d="M93.06,0.63h4.06v31.4h-4.06V0.63z"/>
		<path class="st0" d="M122.63,18.49v13.54h-3.85v-2.96c-1.35,2.03-3.85,3.22-7.36,3.22c-5.08,0-8.29-2.71-8.29-6.6
			c0-3.6,2.33-6.56,9.01-6.56h6.43v-0.8c0-3.43-1.99-5.42-6.01-5.42c-2.67,0-5.37,0.93-7.11,2.41l-1.69-3.05
			c2.33-1.86,5.67-2.88,9.27-2.88C119.16,9.39,122.63,12.36,122.63,18.49z M118.57,25.18v-3.13h-6.26c-4.02,0-5.16,1.57-5.16,3.47
			c0,2.24,1.86,3.64,4.95,3.64C115.14,29.15,117.55,27.76,118.57,25.18z"/>
		<path class="st0" d="M122.42,39.14l1.31-3.13c0.8,0.68,1.99,1.06,3.3,1.06c2.16,0,3.34-1.35,3.34-3.94V9.6h4.06v23.44
			c0,4.57-2.54,7.45-7.15,7.45C125.42,40.49,123.56,40.07,122.42,39.14z M129.65,2.67c0-1.48,1.18-2.67,2.75-2.67
			c1.57,0,2.75,1.14,2.75,2.58c0,1.52-1.14,2.71-2.75,2.71C130.84,5.29,129.65,4.15,129.65,2.67z"/>
		<path class="st0" d="M162.36,22.17h-18.19c0.51,3.94,3.68,6.56,8.12,6.56c2.62,0,4.82-0.89,6.47-2.71l2.24,2.62
			c-2.03,2.37-5.12,3.64-8.84,3.64c-7.24,0-12.06-4.78-12.06-11.47c0-6.64,4.78-11.42,11.25-11.42c6.47,0,11.09,4.65,11.09,11.55
			C162.44,21.28,162.4,21.79,162.36,22.17z M144.17,19.25h14.39c-0.42-3.77-3.26-6.43-7.19-6.43
			C147.47,12.82,144.59,15.44,144.17,19.25z"/>
		<path class="st0" d="M180.04,0.63h3.77v39.6h-3.77V0.63z"/>
	</g>
	<path class="st0" d="M229.04,34.27c2.28,1.95,4.85,0.25,7.37,1.16c-0.52,0.75-0.87,1.49-1.42,2.02c-2.32,2.24-5.2,3.07-8.36,2.94
		c-0.33-0.01-0.91-0.59-0.91-0.91c-0.02-1-0.61-1.02-1.35-1.18c-1.47-0.33-3.06-0.55-4.31-1.31c-1.75-1.07-3.58-1.19-5.48-1.28
		c-0.82-0.04-1.63-0.01-2.6-0.01c0.13-1.31,0.14-2.48,0.38-3.6c0.28-1.29,0.06-2.4-0.37-3.64c-0.56-1.62-0.83-3.37-0.95-5.09
		c-0.09-1.22-0.17-2.09-2-1.75c0.23-1.18,0.36-2.18,0.63-3.15c0.74-2.68,2.5-4.64,4.68-6.24c0.38-0.28,1.02-0.19,1.54-0.27
		c0.01,0.44,0.06,0.89,0.03,1.33c-0.09,1.3-0.14,2.6-0.33,3.88c-0.13,0.83-0.31,1.74-0.77,2.41c-1.3,1.89,0.38,6.72,2.65,7.26
		c0.28,0.07,0.7-0.08,0.93-0.27c5.3-4.23,10.59-8.48,16.02-12.83c-0.69-0.64-1.31-1.21-1.98-1.83c-1.02,0.63-1.99,2.19-3.3,0.75
		c-1.04-1.14,0.04-2.06,0.86-2.96c-0.76-0.84-1.36-1.53-2.79-1.25c-2.29,0.44-4.38-1.33-4.86-3.73c-0.36-1.84,0.87-3.76,2.76-4.3
		c2.63-0.76,5.65,1.39,5.45,4.2c-0.12,1.66,0.86,2.05,1.78,2.8c0.92-0.71,1.83-1.81,2.97-0.74c0.93,0.88,0.41,1.91-0.35,2.72
		c2.69,2.45,1.87,2.47,4.96-0.19c-0.66-0.86-1.37-1.89-0.32-2.82c1.16-1.02,2.05,0.11,2.97,0.78c0.86-0.78,1.97-1.1,1.73-2.8
		c-0.31-2.13,1.84-4.15,4.03-4.35c2.08-0.18,3.8,1.16,4.19,3.27c0.49,2.64-2.02,5.33-4.84,4.91c-1.34-0.2-2.02,0.3-2.74,1.24
		c0.64,0.94,1.98,1.88,0.66,3.1c-1.3,1.2-2.16-0.24-3.19-0.92c-0.74,0.69-1.45,1.36-2.27,2.12c2.7,2.16,5.3,4.25,7.91,6.34
		c2.65,2.12,5.32,4.22,7.93,6.39c0.99,0.83,1.77,0.68,2.61-0.13c1.57-1.5,1.94-3.43,2-5.48c0.01-0.17-0.01-0.41-0.11-0.49
		c-1.48-1.21-1.14-2.89-1.19-4.48c-0.03-0.78-0.23-1.54-0.29-2.32c-0.03-0.46,0.06-0.94,0.1-1.4c0.48,0.1,1.06,0.07,1.43,0.33
		c2.15,1.51,3.81,3.44,4.63,5.97c0.32,1.01,0.48,2.08,0.7,3.11c-1.88,0.56-1.74,0.58-1.99,2.4c-0.27,1.91-1.01,3.76-1.27,5.68
		c-0.19,1.42,0.05,2.89,0.12,4.34c0.03,0.59,0.13,1.18,0.23,1.99c-1.66,0-3.17-0.08-4.67,0.03c-0.78,0.06-1.62,0.3-2.3,0.69
		c-1.75,1.02-3.56,1.82-5.62,1.86c-0.75,0.01-1.05,0.25-1.16,1.04c-0.05,0.41-0.6,1.07-0.92,1.07c-3.27,0.02-6.3-0.75-8.62-3.25
		c-0.43-0.46-0.72-1.04-1.16-1.68c2.43-1.15,5.08,0.72,7.26-1.11c1.17,1.73,2.65,1.08,4.02,0.41c1-0.49,1.94-1.16,2.82-1.86
		c1.33-1.05,1.32-1.66,0.05-2.83c-2.82-2.6-5.65-5.17-8.48-7.76c-2.27-2.08-4.54-4.16-6.86-6.29c-3.9,3.57-7.71,7.06-11.53,10.55
		c-1.25,1.15-2.52,2.28-3.74,3.46c-1,0.97-1.01,1.64,0.1,2.47c1.13,0.86,2.34,1.67,3.63,2.26
		C226.88,35.55,228.22,36.08,229.04,34.27z M248.71,5.66c-0.19,0.19-0.38,0.38-0.57,0.57c1.73-0.49,2.47-1.2,2.33-2.28
		c-0.13-0.98-0.75-1.54-1.7-1.68c-1.07-0.16-1.95,0.72-2.36,2.25c0.26-0.26,0.51-0.51,0.77-0.77C247.69,4.39,248.2,5.03,248.71,5.66
		z M226.59,6.46c0.64-0.68,1.24-1.3,1.85-1.95c-0.54-1.46-1.34-2.15-2.41-1.98c-0.93,0.14-1.44,0.75-1.58,1.64
		C224.27,5.26,224.89,5.88,226.59,6.46z"/>
</g>
</svg>
