<?xml version="1.0" encoding="utf-8"?>
<!-- Generator: Adobe Illustrator 26.5.0, SVG Export Plug-In . SVG Version: 6.00 Build 0)  -->
<svg version="1.1" id="Capa_1" xmlns="http://www.w3.org/2000/svg" xmlns:xlink="http://www.w3.org/1999/xlink" x="0px" y="0px"
	 viewBox="0 0 519.2 13.2" style="enable-background:new 0 0 519.2 13.2;" xml:space="preserve">
<style type="text/css">
	.st0{fill:#FFFFFF;}
</style>
<g>
	<g>
		<g>
			<path class="st0" d="M165.3,11.6V0.1h3.4l4.7,7.3h-0.5V0.1h3.2v11.6h-3.4L168,4.3h0.5v7.3H165.3z"/>
		</g>
		<g>
			<path class="st0" d="M183.5,11.8c-1.2,0-2.2-0.2-3.1-0.7c-0.9-0.4-1.6-1.1-2.1-2c-0.5-0.9-0.7-2-0.7-3.3c0-1.3,0.2-2.4,0.7-3.3
				s1.2-1.5,2.1-2c0.9-0.4,1.9-0.7,3.1-0.7c1.2,0,2.2,0.2,3.1,0.7c0.9,0.4,1.6,1.1,2.1,2c0.5,0.9,0.7,2,0.7,3.3
				c0,1.3-0.2,2.4-0.7,3.3c-0.5,0.9-1.2,1.5-2.1,2C185.7,11.6,184.7,11.8,183.5,11.8z M183.5,9.1c0.5,0,1-0.1,1.3-0.3
				c0.4-0.2,0.6-0.6,0.8-1c0.2-0.5,0.3-1.1,0.3-1.8c0-0.8-0.1-1.4-0.3-1.9c-0.2-0.5-0.5-0.8-0.8-1.1c-0.4-0.2-0.8-0.3-1.3-0.3
				c-0.5,0-1,0.1-1.3,0.3s-0.6,0.6-0.8,1C181.1,4.4,181,5,181,5.8c0,0.8,0.1,1.4,0.3,1.9c0.2,0.5,0.5,0.8,0.8,1.1
				C182.5,9,182.9,9.1,183.5,9.1z"/>
		</g>
		<g>
			<path class="st0" d="M193.5,11.6V2.9H190V0.1h10.5v2.8H197v8.8H193.5z"/>
		</g>
		<g>
			<path class="st0" d="M200.6,11.6l3.5-11.6h5l3.5,11.6h-3.3l-2.8-10.1h0.3l-2.8,10.1H200.6z M203.5,9l0.7-2.7h4.7l0.7,2.7H203.5z"
				/>
		</g>
		<g>
			<path class="st0" d="M216.8,11.8c-0.6,0-1.2,0-1.9-0.1c-0.6-0.1-1.2-0.2-1.6-0.4V8.6c0.3,0.1,0.7,0.2,1.1,0.3
				c0.4,0.1,0.8,0.1,1.2,0.2c0.4,0,0.8,0.1,1.2,0.1c0.7,0,1.1-0.1,1.3-0.2c0.2-0.2,0.3-0.4,0.3-0.6c0-0.2-0.1-0.4-0.2-0.5
				c-0.2-0.1-0.5-0.3-1-0.4l-1-0.3c-1-0.3-1.8-0.7-2.4-1.2c-0.5-0.6-0.8-1.3-0.8-2.2c0-1.2,0.4-2.1,1.3-2.8s2.2-1,4-1
				c0.6,0,1.1,0,1.6,0.1c0.5,0.1,0.9,0.1,1.3,0.2V3c-0.4-0.1-0.8-0.2-1.2-0.3c-0.5-0.1-1-0.1-1.4-0.1c-0.6,0-1,0-1.3,0.1
				c-0.3,0.1-0.5,0.2-0.6,0.3c-0.1,0.1-0.2,0.3-0.2,0.4c0,0.2,0.1,0.3,0.2,0.5c0.1,0.1,0.4,0.2,0.9,0.4l1,0.3
				c0.8,0.2,1.4,0.4,1.9,0.7c0.5,0.3,0.9,0.7,1.1,1.1c0.2,0.5,0.4,1,0.4,1.6c0,0.8-0.2,1.4-0.6,2c-0.4,0.6-1,1-1.7,1.3
				C218.7,11.7,217.8,11.8,216.8,11.8z"/>
		</g>
		<g>
			<path class="st0" d="M227,11.6V0.4c0.4-0.1,0.8-0.2,1.3-0.2c0.4-0.1,0.9-0.1,1.4-0.2s0.9-0.1,1.4-0.1c1.8,0,3.1,0.3,4,1
				c0.9,0.6,1.4,1.6,1.4,3c0,0.9-0.2,1.6-0.6,2.2c-0.4,0.6-1,1-1.8,1.3c-0.8,0.3-1.6,0.4-2.6,0.4c-0.2,0-0.3,0-0.5,0
				c-0.2,0-0.3,0-0.5,0v3.9H227z M233.7,11.6l-3.5-5.3h3.6l3.6,5.3H233.7z M231.4,5.3c0.6,0,1-0.1,1.3-0.3c0.3-0.2,0.5-0.6,0.5-1.1
				c0-0.3-0.1-0.6-0.2-0.8c-0.1-0.2-0.3-0.4-0.6-0.5c-0.3-0.1-0.6-0.2-1-0.2c-0.2,0-0.4,0-0.5,0c-0.2,0-0.3,0-0.5,0.1v2.8
				c0.1,0,0.2,0,0.3,0c0.1,0,0.2,0,0.3,0C231.2,5.3,231.3,5.3,231.4,5.3z"/>
		</g>
		<g>
			<path class="st0" d="M238.2,11.6V0.1h8.8v2.7h-5.5V9h5.5v2.7H238.2z M240.2,7.1V4.4h6v2.7H240.2z"/>
		</g>
		<g>
			<path class="st0" d="M248.5,11.6V0.1h3.4v8.8h5.1v2.8H248.5z"/>
		</g>
		<g>
			<path class="st0" d="M257.1,11.6l3.5-11.6h5l3.5,11.6h-3.3l-2.8-10.1h0.3l-2.8,10.1H257.1z M260,9l0.7-2.7h4.7l0.7,2.7H260z"/>
		</g>
		<g>
			<path class="st0" d="M276.3,11.8c-1.1,0-2-0.1-2.8-0.4c-0.8-0.2-1.5-0.6-2.1-1.1c-0.6-0.5-1-1.1-1.3-1.8
				c-0.3-0.7-0.4-1.6-0.4-2.6c0-1.3,0.3-2.4,0.8-3.3c0.5-0.9,1.3-1.6,2.3-2c1-0.5,2.2-0.7,3.7-0.7c0.4,0,0.9,0,1.3,0.1
				c0.4,0,0.8,0.1,1.2,0.2v2.8c-0.3-0.1-0.7-0.1-1.1-0.2c-0.4,0-0.7-0.1-1.1-0.1c-0.8,0-1.5,0.1-2,0.3c-0.5,0.2-0.9,0.6-1.1,1
				c-0.2,0.5-0.4,1.1-0.4,1.8c0,0.7,0.1,1.4,0.4,1.8c0.2,0.5,0.6,0.8,1.1,1c0.5,0.2,1.1,0.3,1.9,0.3c0.4,0,0.8,0,1.1-0.1
				c0.4-0.1,0.8-0.1,1.1-0.2v2.8c-0.4,0.1-0.8,0.2-1.2,0.3S276.7,11.8,276.3,11.8z"/>
		</g>
		<g>
			<path class="st0" d="M280.2,11.6V0.1h3.4v11.6H280.2z"/>
		</g>
		<g>
			<path class="st0" d="M290.9,11.8c-1.2,0-2.2-0.2-3.1-0.7c-0.9-0.4-1.6-1.1-2.1-2c-0.5-0.9-0.7-2-0.7-3.3c0-1.3,0.2-2.4,0.7-3.3
				c0.5-0.9,1.2-1.5,2.1-2c0.9-0.4,1.9-0.7,3.1-0.7c1.2,0,2.2,0.2,3.1,0.7c0.9,0.4,1.6,1.1,2.1,2c0.5,0.9,0.7,2,0.7,3.3
				c0,1.3-0.2,2.4-0.7,3.3c-0.5,0.9-1.2,1.5-2.1,2S292.1,11.8,290.9,11.8z M290.9,9.1c0.5,0,1-0.1,1.3-0.3c0.4-0.2,0.6-0.6,0.8-1
				c0.2-0.5,0.3-1.1,0.3-1.8c0-0.8-0.1-1.4-0.3-1.9c-0.2-0.5-0.5-0.8-0.8-1.1c-0.4-0.2-0.8-0.3-1.3-0.3c-0.5,0-1,0.1-1.3,0.3
				c-0.4,0.2-0.6,0.6-0.8,1s-0.3,1.1-0.3,1.8c0,0.8,0.1,1.4,0.3,1.9c0.2,0.5,0.5,0.8,0.8,1.1C289.9,9,290.4,9.1,290.9,9.1z"/>
		</g>
		<g>
			<path class="st0" d="M298.2,11.6V0.1h3.4l4.7,7.3h-0.5V0.1h3.2v11.6h-3.4l-4.7-7.3h0.5v7.3H298.2z"/>
		</g>
		<g>
			<path class="st0" d="M309.9,11.6l3.5-11.6h5l3.5,11.6h-3.3l-2.8-10.1h0.3l-2.8,10.1H309.9z M312.8,9l0.7-2.7h4.7l0.7,2.7H312.8z"
				/>
		</g>
		<g>
			<path class="st0" d="M326.2,11.8c-0.3,0-0.7,0-1.1,0c-0.4,0-0.8,0-1.2-0.1c-0.4,0-0.8-0.1-1.2-0.1V0.4c0.4-0.1,0.8-0.2,1.3-0.2
				c0.5-0.1,0.9-0.1,1.4-0.2c0.5,0,1-0.1,1.4-0.1c2.2,0,3.9,0.5,5.1,1.4c1.1,1,1.7,2.5,1.7,4.5c0,1.4-0.3,2.5-0.8,3.4
				s-1.4,1.5-2.5,1.9C329.3,11.6,327.9,11.8,326.2,11.8z M327.2,9.1c0.7,0,1.2-0.1,1.7-0.3c0.4-0.2,0.8-0.5,1-1
				c0.2-0.5,0.3-1.1,0.3-1.9c0-0.8-0.1-1.4-0.3-1.9c-0.2-0.5-0.6-0.8-1-1c-0.4-0.2-1-0.3-1.7-0.3c-0.1,0-0.3,0-0.5,0
				c-0.2,0-0.4,0-0.5,0.1V9c0.2,0,0.4,0,0.5,0C326.8,9.1,327,9.1,327.2,9.1z"/>
		</g>
		<g>
			<path class="st0" d="M334.2,11.6l3.5-11.6h5l3.5,11.6h-3.3L340,1.5h0.3l-2.8,10.1H334.2z M337.1,9l0.7-2.7h4.7l0.7,2.7H337.1z"/>
		</g>
		<g>
			<path class="st0" d="M350.4,11.8c-0.6,0-1.2,0-1.9-0.1c-0.6-0.1-1.2-0.2-1.6-0.4V8.6c0.3,0.1,0.7,0.2,1.1,0.3
				c0.4,0.1,0.8,0.1,1.2,0.2c0.4,0,0.8,0.1,1.2,0.1c0.7,0,1.1-0.1,1.3-0.2c0.2-0.2,0.3-0.4,0.3-0.6c0-0.2-0.1-0.4-0.2-0.5
				c-0.2-0.1-0.5-0.3-1-0.4l-1-0.3c-1-0.3-1.8-0.7-2.4-1.2c-0.5-0.6-0.8-1.3-0.8-2.2c0-1.2,0.4-2.1,1.3-2.8c0.9-0.7,2.2-1,4-1
				c0.6,0,1.1,0,1.6,0.1c0.5,0.1,0.9,0.1,1.3,0.2V3c-0.4-0.1-0.8-0.2-1.2-0.3c-0.5-0.1-1-0.1-1.4-0.1c-0.6,0-1,0-1.3,0.1
				c-0.3,0.1-0.5,0.2-0.6,0.3c-0.1,0.1-0.2,0.3-0.2,0.4c0,0.2,0.1,0.3,0.2,0.5c0.1,0.1,0.4,0.2,0.9,0.4l1,0.3
				c0.8,0.2,1.4,0.4,1.9,0.7c0.5,0.3,0.9,0.7,1.1,1.1c0.2,0.5,0.4,1,0.4,1.6c0,0.8-0.2,1.4-0.6,2c-0.4,0.6-1,1-1.7,1.3
				C352.3,11.7,351.4,11.8,350.4,11.8z"/>
		</g>
	</g>
	<g>
		<rect x="367.6" y="4.6" class="st0" width="151.6" height="1"/>
	</g>
	<g>
		<rect y="4.6" class="st0" width="151.6" height="1"/>
	</g>
</g>
</svg>
