<?xml version="1.0" encoding="utf-8"?>
<!-- Generator: Adobe Illustrator 26.5.0, SVG Export Plug-In . SVG Version: 6.00 Build 0)  -->
<svg version="1.1" id="Capa_1" xmlns="http://www.w3.org/2000/svg" xmlns:xlink="http://www.w3.org/1999/xlink" x="0px" y="0px"
	 viewBox="0 0 66.66 48.3" style="enable-background:new 0 0 66.66 48.3;" xml:space="preserve">
<style type="text/css">
	.st0{fill:#FFFFFF;}
</style>
<path class="st0" d="M23.75,40.69c2.71,2.32,5.76,0.3,8.75,1.38c-0.62,0.89-1.03,1.77-1.69,2.4c-2.76,2.67-6.18,3.64-9.93,3.49
	c-0.39-0.02-1.08-0.7-1.08-1.08c-0.02-1.19-0.73-1.21-1.6-1.4c-1.74-0.39-3.64-0.65-5.11-1.55c-2.08-1.27-4.25-1.41-6.5-1.52
	c-0.97-0.05-1.94-0.01-3.09-0.01c0.15-1.55,0.17-2.95,0.45-4.28c0.33-1.53,0.07-2.85-0.44-4.32c-0.67-1.92-0.98-4.01-1.13-6.04
	c-0.1-1.45-0.2-2.48-2.38-2.08c0.27-1.4,0.43-2.59,0.75-3.75c0.88-3.18,2.97-5.51,5.56-7.41c0.45-0.33,1.21-0.22,1.83-0.32
	c0.01,0.53,0.07,1.05,0.04,1.58c-0.1,1.54-0.16,3.09-0.39,4.61c-0.15,0.98-0.37,2.07-0.91,2.86c-1.55,2.25,0.45,7.98,3.15,8.63
	c0.33,0.08,0.83-0.09,1.11-0.32c6.3-5.02,12.58-10.07,19.03-15.24c-0.82-0.76-1.56-1.44-2.35-2.17c-1.21,0.75-2.36,2.6-3.92,0.89
	c-1.24-1.36,0.05-2.44,1.02-3.51c-0.9-1-1.62-1.81-3.31-1.49c-2.72,0.52-5.21-1.58-5.77-4.43c-0.43-2.18,1.04-4.46,3.28-5.11
	c3.12-0.9,6.71,1.65,6.47,4.99c-0.14,1.97,1.02,2.43,2.11,3.32c1.09-0.84,2.18-2.15,3.52-0.88c1.1,1.04,0.49,2.27-0.41,3.23
	c3.19,2.91,2.22,2.93,5.9-0.23c-0.78-1.03-1.63-2.25-0.38-3.35c1.38-1.22,2.44,0.13,3.53,0.93c1.02-0.92,2.34-1.31,2.05-3.32
	c-0.36-2.52,2.18-4.93,4.79-5.16c2.47-0.22,4.52,1.38,4.98,3.88c0.58,3.14-2.4,6.33-5.75,5.83c-1.59-0.24-2.4,0.35-3.25,1.47
	c0.75,1.12,2.35,2.24,0.79,3.68c-1.54,1.42-2.57-0.29-3.79-1.09c-0.87,0.82-1.73,1.61-2.7,2.52c3.21,2.57,6.3,5.05,9.39,7.53
	c3.14,2.52,6.32,5.01,9.42,7.59c1.18,0.98,2.1,0.81,3.1-0.15c1.86-1.78,2.3-4.08,2.37-6.5c0.01-0.2-0.01-0.48-0.13-0.58
	c-1.75-1.44-1.36-3.43-1.42-5.32c-0.03-0.92-0.28-1.83-0.35-2.76c-0.04-0.55,0.08-1.11,0.12-1.67c0.57,0.12,1.26,0.08,1.7,0.39
	c2.55,1.79,4.53,4.08,5.5,7.1c0.39,1.2,0.56,2.47,0.83,3.69c-2.24,0.66-2.06,0.69-2.37,2.85c-0.32,2.27-1.2,4.47-1.51,6.74
	c-0.23,1.68,0.05,3.44,0.14,5.16c0.04,0.7,0.16,1.4,0.27,2.36c-1.97,0-3.76-0.09-5.54,0.04c-0.93,0.07-1.93,0.36-2.73,0.82
	c-2.08,1.21-4.23,2.17-6.67,2.21c-0.89,0.02-1.25,0.3-1.38,1.23c-0.06,0.48-0.71,1.27-1.1,1.27c-3.89,0.02-7.48-0.89-10.24-3.86
	c-0.51-0.54-0.86-1.23-1.38-2c2.89-1.36,6.04,0.85,8.62-1.32c1.39,2.06,3.14,1.29,4.78,0.49c1.19-0.58,2.3-1.38,3.35-2.2
	c1.58-1.25,1.57-1.97,0.06-3.36c-3.34-3.08-6.71-6.14-10.07-9.21c-2.7-2.47-5.4-4.94-8.15-7.47c-4.63,4.24-9.16,8.38-13.69,12.53
	c-1.49,1.36-2.99,2.71-4.44,4.11c-1.19,1.15-1.2,1.94,0.11,2.94c1.35,1.02,2.78,1.99,4.31,2.68C21.19,42.22,22.78,42.85,23.75,40.69
	z M47.11,6.72c-0.23,0.23-0.45,0.45-0.68,0.68c2.05-0.58,2.94-1.43,2.77-2.7c-0.16-1.16-0.89-1.83-2.01-2
	c-1.27-0.19-2.32,0.85-2.8,2.67c0.3-0.3,0.61-0.61,0.91-0.91C45.9,5.21,46.51,5.97,47.11,6.72z M20.84,7.66
	c0.76-0.8,1.47-1.55,2.2-2.32c-0.64-1.73-1.6-2.55-2.86-2.35c-1.11,0.17-1.71,0.89-1.88,1.95C18.09,6.25,18.83,6.98,20.84,7.66z"/>
</svg>
