<?xml version="1.0" encoding="UTF-8"?>
<svg id="Capa_2" data-name="Capa 2" xmlns="http://www.w3.org/2000/svg" viewBox="0 0 44.53 31.87">
  <defs>
    <style>
      .cls-1 {
        fill: #0b75a4;
      }
    </style>
  </defs>
  <g id="Capa_1-2" data-name="Capa 1">
    <path class="cls-1" d="M15.67,26.85c1.79,1.53,3.8,.2,5.77,.91-.41,.59-.68,1.17-1.11,1.58-1.82,1.76-4.07,2.4-6.55,2.3-.26-.01-.71-.46-.71-.71-.01-.79-.48-.8-1.05-.93-1.15-.26-2.4-.43-3.37-1.02-1.37-.84-2.8-.93-4.29-1-.64-.03-1.28,0-2.04,0,.1-1.03,.11-1.94,.3-2.82,.22-1.01,.05-1.88-.29-2.85-.44-1.27-.65-2.64-.74-3.99-.07-.96-.13-1.64-1.57-1.37,.18-.92,.28-1.71,.49-2.47,.58-2.1,1.96-3.64,3.67-4.89,.29-.22,.8-.15,1.2-.21,0,.35,.05,.7,.02,1.04-.07,1.02-.11,2.04-.26,3.04-.1,.65-.24,1.36-.6,1.89-1.02,1.48,.3,5.27,2.08,5.69,.22,.05,.54-.06,.73-.21,4.16-3.31,8.3-6.64,12.56-10.05-.54-.5-1.03-.95-1.55-1.43-.8,.5-1.56,1.71-2.59,.59-.82-.89,.03-1.61,.67-2.32-.6-.66-1.07-1.2-2.18-.98-1.79,.35-3.44-1.04-3.81-2.92-.28-1.44,.68-2.95,2.17-3.37,2.06-.59,4.43,1.09,4.27,3.29-.09,1.3,.67,1.6,1.39,2.19,.72-.56,1.44-1.42,2.32-.58,.73,.69,.32,1.5-.27,2.13,2.11,1.92,1.46,1.93,3.89-.15-.52-.68-1.07-1.48-.25-2.21,.91-.8,1.61,.08,2.33,.61,.67-.61,1.54-.86,1.35-2.19-.24-1.67,1.44-3.26,3.16-3.41,1.63-.14,2.98,.91,3.29,2.56,.38,2.07-1.58,4.18-3.79,3.85-1.05-.16-1.58,.23-2.14,.97,.5,.74,1.55,1.48,.52,2.43-1.02,.94-1.69-.19-2.5-.72-.58,.54-1.14,1.06-1.78,1.66,2.11,1.69,4.16,3.33,6.2,4.96,2.07,1.66,4.17,3.3,6.21,5.01,.78,.65,1.38,.53,2.04-.1,1.23-1.18,1.52-2.69,1.57-4.29,0-.13,0-.32-.09-.39-1.16-.95-.89-2.26-.94-3.51-.02-.61-.18-1.21-.23-1.82-.03-.36,.05-.73,.08-1.1,.38,.08,.83,.06,1.12,.26,1.68,1.18,2.99,2.69,3.63,4.68,.25,.79,.37,1.63,.55,2.44-1.48,.44-1.36,.45-1.56,1.88-.21,1.5-.79,2.95-1,4.45-.15,1.11,.04,2.27,.09,3.4,.02,.46,.1,.93,.18,1.56-1.3,0-2.48-.06-3.66,.02-.61,.04-1.27,.23-1.8,.54-1.37,.8-2.79,1.43-4.4,1.46-.59,.01-.83,.2-.91,.81-.04,.32-.47,.84-.72,.84-2.56,.01-4.93-.58-6.76-2.55-.33-.36-.57-.81-.91-1.32,1.91-.9,3.98,.56,5.69-.87,.92,1.36,2.07,.85,3.15,.32,.79-.39,1.52-.91,2.21-1.45,1.04-.82,1.03-1.3,.04-2.22-2.21-2.03-4.43-4.05-6.64-6.08-1.78-1.63-3.56-3.26-5.38-4.93-3.05,2.79-6.04,5.53-9.03,8.27-.98,.9-1.97,1.79-2.93,2.71-.78,.76-.79,1.28,.08,1.94,.89,.67,1.83,1.31,2.84,1.77,.88,.4,1.93,.82,2.56-.61ZM31.08,4.44c-.15,.15-.3,.3-.45,.45,1.36-.38,1.94-.94,1.82-1.78-.1-.77-.59-1.21-1.33-1.32-.84-.12-1.53,.56-1.85,1.76,.2-.2,.4-.4,.6-.6,.4,.5,.8,1,1.19,1.49Zm-17.33,.62c.5-.53,.97-1.02,1.45-1.53-.42-1.14-1.05-1.68-1.88-1.55-.73,.11-1.13,.58-1.24,1.29-.14,.86,.35,1.34,1.68,1.79Z"/>
  </g>
</svg>