<?xml version="1.0" encoding="UTF-8"?>
<svg id="Capa_2" data-name="Capa 2" xmlns="http://www.w3.org/2000/svg" viewBox="0 0 265.72 93.7">
  <defs>
    <style>
      .cls-1 {
        fill: #1075a5;
      }
    </style>
  </defs>
  <g id="Capa_1-2" data-name="Capa 1">
    <g>
      <g>
        <path class="cls-1" d="M0,74.25V1.37H17.47V74.25H0Z"/>
        <path class="cls-1" d="M33.13,41.83V1.37h17.52V42.77c0,5.15,1.51,9.29,4.54,12.43,3.03,3.14,6.97,4.71,11.83,4.71s8.8-1.57,11.83-4.71c3.03-3.14,4.54-7.28,4.54-12.43V1.37h17.14V41.83c0,10.18-3.09,18.36-9.25,24.53-6.17,6.17-14.26,9.25-24.26,9.25s-18.42-3.08-24.59-9.25c-6.21-6.21-9.31-14.38-9.31-24.53Z"/>
        <path class="cls-1" d="M141.49,75.62c-6.5,0-12.47-1.19-17.91-3.56-5.51-2.34-9.91-5.53-13.2-9.58v-1.37l8.65-9.97h1.2c2.41,2.7,5.51,4.98,9.31,6.84,3.76,1.86,7.39,2.79,10.9,2.79s6.42-.65,8.51-1.94c2.1-1.3,3.15-3.04,3.15-5.23,0-1.97-.68-3.52-2.03-4.65-.58-.47-1.5-.99-2.74-1.53-1.46-.58-2.48-.97-3.07-1.15-.26-.07-.57-.16-.93-.27-.37-.11-.85-.25-1.45-.44-.6-.18-1.14-.35-1.62-.49-.69-.18-1.52-.41-2.46-.68-.95-.27-1.53-.45-1.75-.52-5.69-1.75-10.6-4.14-14.73-7.17-4.96-3.65-7.45-8.71-7.45-15.17s2.54-11.57,7.61-15.55c5.07-3.98,11.68-5.97,19.82-5.97,5.8,0,11.12,1,15.93,3.01,4.78,2.01,8.6,4.67,11.44,7.99v1.2l-8.6,9.91h-1.26c-5.11-5.26-10.86-7.92-17.25-7.99-2.96,0-5.35,.59-7.17,1.78-1.83,1.19-2.74,2.77-2.74,4.74,0,2.26,1.2,4.07,3.61,5.42,1.46,.8,2.61,1.37,3.45,1.7,.58,.22,2.04,.77,4.38,1.64,8.1,2.59,13.71,4.76,16.81,6.52,6.68,4.02,10.06,9.88,10.13,17.58,0,6.86-2.72,12.27-8.16,16.21-5.48,3.94-12.28,5.91-20.42,5.91Z"/>
        <path class="cls-1" d="M255.06,1.37l10.08,72.88h-16.15l-4.49-39.37-17.36,39.37h-9.8l-17.03-39.37-4.6,39.37h-17.25L188.64,1.37h10.24l23.33,50.21L244.93,1.37h10.13Z"/>
      </g>
      <g>
        <path class="cls-1" d="M.96,93.57v-6.62h.73v6.62H.96Z"/>
        <path class="cls-1" d="M8.62,92.22v-5.27h.72v6.72h-.33l-4.29-5.26v5.16h-.71v-6.62h.32l4.29,5.27Z"/>
        <path class="cls-1" d="M13.6,93.7c-.52,0-1.01-.12-1.47-.35-.47-.24-.85-.57-1.12-.98v-.06l.47-.41h.06c.26,.35,.57,.62,.93,.82,.36,.2,.72,.3,1.08,.3,.48,0,.86-.11,1.15-.32,.28-.21,.42-.48,.42-.82,0-.19-.03-.36-.1-.49-.07-.13-.19-.25-.35-.36-.18-.11-.33-.19-.44-.24-.12-.05-.33-.13-.62-.22-.3-.1-.51-.17-.64-.22-.24-.09-.42-.17-.56-.24-.14-.07-.3-.17-.49-.31-.38-.27-.57-.67-.57-1.19s.2-.95,.6-1.28c.4-.33,.92-.5,1.57-.5,.94,0,1.67,.34,2.18,1.02v.06l-.45,.42h-.06c-.44-.55-1-.83-1.67-.83-.41,0-.75,.09-1.01,.28-.27,.2-.4,.44-.4,.75s.1,.53,.31,.68c.2,.16,.52,.32,.97,.48,.09,.03,.23,.08,.42,.15,.22,.08,.37,.13,.44,.16,.1,.03,.23,.09,.41,.16,.17,.08,.3,.15,.4,.21,.27,.18,.47,.37,.59,.58,.15,.25,.22,.55,.22,.9,0,.56-.21,1-.63,1.34-.42,.34-.97,.51-1.65,.51Z"/>
        <path class="cls-1" d="M21.9,87.6h-2.2v5.97h-.73v-5.97h-2.2v-.65h5.13v.65Z"/>
        <path class="cls-1" d="M23.39,93.57v-6.62h.73v6.62h-.73Z"/>
        <path class="cls-1" d="M30.75,87.6h-2.2v5.97h-.73v-5.97h-2.2v-.65h5.13v.65Z"/>
        <path class="cls-1" d="M32.15,90.99v-4.03h.74v4.01c0,.62,.19,1.11,.56,1.49,.37,.38,.86,.57,1.47,.57s1.11-.19,1.48-.57c.37-.37,.56-.87,.56-1.49v-4.01h.71v4.03c0,.82-.25,1.47-.75,1.96-.5,.5-1.17,.75-2,.75s-1.5-.25-2-.75c-.51-.49-.77-1.15-.77-1.96Z"/>
        <path class="cls-1" d="M44.21,87.6h-2.2v5.97h-.73v-5.97h-2.2v-.65h5.13v.65Z"/>
        <path class="cls-1" d="M50.85,92.71c-.67,.66-1.5,.98-2.49,.98s-1.82-.33-2.49-.98c-.67-.66-1-1.47-1-2.45s.33-1.8,1-2.45c.67-.65,1.5-.98,2.49-.98s1.82,.33,2.49,.98c.67,.66,1,1.47,1,2.45s-.33,1.8-1,2.45Zm-4.46-.47c.52,.52,1.18,.78,1.96,.78s1.44-.26,1.96-.78c.52-.52,.79-1.18,.79-1.98s-.26-1.46-.79-1.98c-.52-.52-1.18-.78-1.96-.78s-1.44,.26-1.96,.78c-.52,.52-.79,1.18-.79,1.98s.26,1.46,.79,1.98Z"/>
        <path class="cls-1" d="M56.51,90.99v-4.03h.74v4.01c0,.62,.19,1.11,.56,1.49,.37,.38,.86,.57,1.47,.57s1.11-.19,1.48-.57c.37-.37,.56-.87,.56-1.49v-4.01h.71v4.03c0,.82-.25,1.47-.75,1.96-.5,.5-1.17,.75-2,.75s-1.5-.25-2-.75c-.51-.49-.77-1.15-.77-1.96Z"/>
        <path class="cls-1" d="M68.88,92.22v-5.27h.72v6.72h-.33l-4.29-5.26v5.16h-.71v-6.62h.32l4.29,5.27Z"/>
        <path class="cls-1" d="M71.91,93.57v-6.62h.73v6.62h-.73Z"/>
        <path class="cls-1" d="M79.46,86.95h.74l.03,.06-2.85,6.56h-.33l-2.85-6.56,.03-.06h.77l2.22,5.26,2.24-5.26Z"/>
        <path class="cls-1" d="M86.19,86.95v.65h-3.67v2.3h2.92v.65h-2.92v2.36h3.67v.65h-4.4v-6.62h4.4Z"/>
        <path class="cls-1" d="M92.82,88.87c0,.48-.13,.87-.38,1.18-.25,.31-.62,.52-1.11,.63l1.49,2.83-.03,.06h-.72l-1.47-2.8h-1.86v2.8h-.73v-6.62h2.48c.75,0,1.33,.17,1.73,.5,.4,.33,.6,.81,.6,1.41Zm-2.14-1.26h-1.94v2.54h1.94c.43,0,.77-.12,1.02-.36,.25-.24,.37-.55,.37-.92s-.12-.67-.37-.91c-.24-.23-.58-.35-1.02-.35Z"/>
        <path class="cls-1" d="M96.64,93.7c-.52,0-1.01-.12-1.47-.35-.47-.24-.85-.57-1.12-.98v-.06l.47-.41h.06c.26,.35,.57,.62,.93,.82,.36,.2,.72,.3,1.08,.3,.48,0,.86-.11,1.15-.32,.28-.21,.42-.48,.42-.82,0-.19-.03-.36-.1-.49-.07-.13-.19-.25-.35-.36-.18-.11-.33-.19-.44-.24-.12-.05-.33-.13-.62-.22-.3-.1-.51-.17-.64-.22-.24-.09-.42-.17-.56-.24-.14-.07-.3-.17-.49-.31-.38-.27-.57-.67-.57-1.19s.2-.95,.6-1.28c.4-.33,.92-.5,1.57-.5,.94,0,1.67,.34,2.18,1.02v.06l-.45,.42h-.06c-.44-.55-1-.83-1.67-.83-.41,0-.75,.09-1.01,.28-.27,.2-.4,.44-.4,.75s.1,.53,.31,.68c.2,.16,.52,.32,.97,.48,.09,.03,.23,.08,.42,.15,.22,.08,.37,.13,.44,.16,.1,.03,.23,.09,.41,.16,.17,.08,.3,.15,.4,.21,.27,.18,.47,.37,.59,.58,.15,.25,.22,.55,.22,.9,0,.56-.21,1-.63,1.34-.42,.34-.97,.51-1.65,.51Z"/>
        <path class="cls-1" d="M100.72,93.57v-6.62h.73v6.62h-.73Z"/>
        <path class="cls-1" d="M108.08,87.6h-2.2v5.97h-.73v-5.97h-2.2v-.65h5.13v.65Z"/>
        <path class="cls-1" d="M111.15,86.95h.33l3.05,6.56-.03,.06h-.72l-.69-1.5h-3.6l-.69,1.5h-.7l-.03-.06,3.07-6.56Zm.15,1.2l-1.51,3.27h2.99l-1.49-3.27Z"/>
        <path class="cls-1" d="M120.87,88.87c0,.48-.13,.87-.38,1.18-.25,.31-.62,.52-1.11,.63l1.49,2.83-.03,.06h-.72l-1.47-2.8h-1.86v2.8h-.73v-6.62h2.48c.75,0,1.33,.17,1.73,.5,.4,.33,.6,.81,.6,1.41Zm-2.14-1.26h-1.94v2.54h1.94c.43,0,.77-.12,1.02-.36,.25-.24,.37-.55,.37-.92s-.12-.67-.37-.91c-.24-.23-.58-.35-1.02-.35Z"/>
        <path class="cls-1" d="M122.75,93.57v-6.62h.73v6.62h-.73Z"/>
        <path class="cls-1" d="M131.3,92.71c-.67,.66-1.5,.98-2.49,.98s-1.82-.33-2.49-.98-1-1.47-1-2.45,.33-1.8,1-2.45c.67-.65,1.5-.98,2.49-.98s1.82,.33,2.49,.98c.67,.66,1,1.47,1,2.45s-.33,1.8-1,2.45Zm-4.46-.47c.52,.52,1.18,.78,1.96,.78s1.44-.26,1.96-.78c.52-.52,.79-1.18,.79-1.98s-.26-1.46-.79-1.98c-.52-.52-1.18-.78-1.96-.78s-1.44,.26-1.96,.78c-.52,.52-.79,1.18-.79,1.98s.26,1.46,.79,1.98Z"/>
        <path class="cls-1" d="M137.07,86.95h2.52c1.03,0,1.86,.3,2.5,.91,.63,.6,.95,1.4,.95,2.39s-.32,1.8-.95,2.41c-.63,.61-1.46,.92-2.5,.92h-2.52v-6.62Zm.73,5.97h1.79c.82,0,1.47-.24,1.96-.73,.49-.48,.74-1.12,.74-1.93s-.25-1.44-.74-1.93c-.49-.48-1.15-.73-1.96-.73h-1.79v5.32Z"/>
        <path class="cls-1" d="M149.27,86.95v.65h-3.67v2.3h2.92v.65h-2.92v2.36h3.67v.65h-4.4v-6.62h4.4Z"/>
        <path class="cls-1" d="M155.96,93.7c-.52,0-1.01-.12-1.47-.35-.47-.24-.85-.57-1.12-.98v-.06l.47-.41h.06c.26,.35,.57,.62,.93,.82,.36,.2,.72,.3,1.08,.3,.48,0,.86-.11,1.15-.32,.28-.21,.42-.48,.42-.82,0-.19-.03-.36-.1-.49-.07-.13-.19-.25-.35-.36-.18-.11-.33-.19-.44-.24-.12-.05-.33-.13-.62-.22-.3-.1-.51-.17-.64-.22-.24-.09-.42-.17-.56-.24-.14-.07-.3-.17-.49-.31-.38-.27-.57-.67-.57-1.19s.2-.95,.6-1.28c.4-.33,.92-.5,1.57-.5,.94,0,1.67,.34,2.18,1.02v.06l-.45,.42h-.06c-.44-.55-1-.83-1.67-.83-.41,0-.75,.09-1.01,.28-.27,.2-.4,.44-.4,.75s.1,.53,.31,.68c.2,.16,.52,.32,.97,.48,.09,.03,.23,.08,.42,.15,.22,.08,.37,.13,.44,.16,.1,.03,.23,.09,.41,.16,.17,.08,.3,.15,.4,.21,.27,.18,.47,.37,.59,.58,.15,.25,.22,.55,.22,.9,0,.56-.21,1-.63,1.34-.42,.34-.97,.51-1.65,.51Z"/>
        <path class="cls-1" d="M164.43,86.95v.65h-3.67v2.3h2.92v.65h-2.92v2.36h3.67v.65h-4.4v-6.62h4.4Z"/>
        <path class="cls-1" d="M172.15,90.01l.06,.06c.01,.07,.02,.17,.02,.3,0,.92-.31,1.7-.92,2.33-.65,.67-1.44,1-2.38,1s-1.77-.32-2.41-.97c-.65-.65-.97-1.47-.97-2.46s.33-1.81,.99-2.46c.66-.65,1.46-.97,2.41-.97,.53,0,1.03,.11,1.5,.34,.46,.23,.85,.54,1.16,.94v.06l-.49,.4h-.06c-.25-.34-.55-.6-.93-.79-.37-.19-.77-.29-1.19-.29-.75,0-1.37,.26-1.88,.78-.51,.51-.77,1.18-.77,1.98s.25,1.48,.75,1.99c.49,.51,1.12,.77,1.87,.77s1.39-.26,1.9-.79c.43-.45,.65-.98,.65-1.57h-2.54v-.65h3.22Z"/>
        <path class="cls-1" d="M173.83,90.99v-4.03h.74v4.01c0,.62,.19,1.11,.56,1.49,.37,.38,.86,.57,1.47,.57s1.11-.19,1.48-.57c.37-.37,.56-.87,.56-1.49v-4.01h.71v4.03c0,.82-.25,1.47-.75,1.96-.5,.5-1.17,.75-2,.75s-1.5-.25-2-.75c-.51-.49-.77-1.15-.77-1.96Z"/>
        <path class="cls-1" d="M186.4,88.87c0,.48-.13,.87-.38,1.18-.25,.31-.62,.52-1.11,.63l1.49,2.83-.03,.06h-.72l-1.47-2.8h-1.86v2.8h-.73v-6.62h2.48c.75,0,1.33,.17,1.73,.5,.4,.33,.6,.81,.6,1.41Zm-2.14-1.26h-1.94v2.54h1.94c.43,0,.77-.12,1.02-.36,.25-.24,.37-.55,.37-.92s-.12-.67-.37-.91c-.24-.23-.58-.35-1.02-.35Z"/>
        <path class="cls-1" d="M188.28,93.57v-6.62h.73v6.62h-.73Z"/>
        <path class="cls-1" d="M191.34,86.95h2.52c1.03,0,1.86,.3,2.5,.91,.63,.6,.95,1.4,.95,2.39s-.32,1.8-.95,2.41c-.63,.61-1.46,.92-2.5,.92h-2.52v-6.62Zm.73,5.97h1.79c.82,0,1.47-.24,1.96-.73,.49-.48,.74-1.12,.74-1.93s-.25-1.44-.74-1.93c-.49-.48-1.15-.73-1.96-.73h-1.79v5.32Z"/>
        <path class="cls-1" d="M201.21,86.95h.33l3.05,6.56-.03,.06h-.72l-.69-1.5h-3.6l-.69,1.5h-.7l-.03-.06,3.07-6.56Zm.15,1.2l-1.51,3.27h2.99l-1.49-3.27Z"/>
        <path class="cls-1" d="M206.12,86.95h2.52c1.03,0,1.86,.3,2.5,.91,.63,.6,.95,1.4,.95,2.39s-.32,1.8-.95,2.41c-.63,.61-1.46,.92-2.5,.92h-2.52v-6.62Zm.73,5.97h1.79c.82,0,1.47-.24,1.96-.73,.49-.48,.74-1.12,.74-1.93s-.25-1.44-.74-1.93c-.49-.48-1.15-.73-1.96-.73h-1.79v5.32Z"/>
        <path class="cls-1" d="M222.86,86.95l.72,6.62h-.68l-.5-4.78-2.21,4.78h-.32l-2.17-4.76-.5,4.76h-.68l.72-6.62h.33l2.46,5.46,2.51-5.46h.33Z"/>
        <path class="cls-1" d="M227.84,86.95h.33l3.05,6.56-.03,.06h-.72l-.69-1.5h-3.6l-.69,1.5h-.7l-.03-.06,3.07-6.56Zm.15,1.2l-1.51,3.27h2.99l-1.49-3.27Z"/>
        <path class="cls-1" d="M237.56,88.87c0,.48-.13,.87-.38,1.18-.25,.31-.62,.52-1.11,.63l1.49,2.83-.03,.06h-.72l-1.47-2.8h-1.86v2.8h-.73v-6.62h2.48c.75,0,1.33,.17,1.73,.5,.4,.33,.6,.81,.6,1.41Zm-2.14-1.26h-1.94v2.54h1.94c.43,0,.77-.12,1.02-.36,.25-.24,.37-.55,.37-.92s-.12-.67-.37-.91c-.24-.23-.58-.35-1.02-.35Z"/>
        <path class="cls-1" d="M238.61,85.96l1.82-1.21h.05l.37,.55v.05l-1.95,1.01h-.05l-.23-.35v-.05Zm.84,7.61v-6.62h.73v6.62h-.73Z"/>
        <path class="cls-1" d="M246.8,87.6h-2.2v5.97h-.73v-5.97h-2.2v-.65h5.13v.65Z"/>
        <path class="cls-1" d="M248.3,93.57v-6.62h.73v6.62h-.73Z"/>
        <path class="cls-1" d="M257.36,86.95l.72,6.62h-.68l-.5-4.78-2.21,4.78h-.32l-2.17-4.76-.5,4.76h-.68l.72-6.62h.33l2.46,5.46,2.51-5.46h.33Z"/>
        <path class="cls-1" d="M262.34,86.95h.33l3.05,6.56-.03,.06h-.72l-.69-1.5h-3.6l-.69,1.5h-.7l-.03-.06,3.07-6.56Zm.15,1.2l-1.51,3.27h2.99l-1.49-3.27Z"/>
      </g>
    </g>
  </g>
</svg>