<?xml version="1.0" encoding="UTF-8"?>
<svg id="Capa_2" data-name="Capa 2" xmlns="http://www.w3.org/2000/svg" viewBox="0 0 383.21 109.53">
  <defs>
    <style>
      .cls-1 {
        fill: #fff;
      }
    </style>
  </defs>
  <g id="Capa_1-2" data-name="Capa 1">
    <g>
      <g>
        <g>
          <path class="cls-1" d="M82.37,48.54c-5.87-7.24-6.15-3.74-6.15-3.74,.8,.8,.8,4.49,.8,4.49-.52,3.57,1.49,4.55,1.49,4.55,.4,6.09-2.7,8.05-3.62,8.52-.91,.47-1.64-.25-1.64-.25l-26.74-21.45,.61-.59c.82-.8,.95-2.02,.28-2.71-.67-.7-1.89-.61-2.72,.19l-.92,.9-2.56-2.06c.67-1.84,.12-4.07-1.55-5.53-2.13-1.85-5.25-1.77-6.98,.21-1.73,1.98-1.39,5.08,.74,6.94,1.63,1.42,3.82,1.69,5.54,.87,.59,.54,1.37,1.26,2.25,2.06l-1,.96c-.82,.81-.95,2.03-.27,2.72,.67,.7,1.9,.6,2.73-.2l1.14-1.11c8.89,8.13,24.13,22.08,25.36,23.24,1.73,1.63,.1,2.96,.1,2.96-4.95,4.48-8.05,3.5-8.05,3.5-1.26-1.95-1.33-1.09-1.33-1.09,0,0,.07,1.15-4.83,.8-4.22-.3-3.45,.41-3.45,.41,2.87,5.69,10.93,5.92,11.9,5.8,.98-.11,.8-.92,.8-.92,0-1.04,.25-1.62,.25-1.62,5.53,.04,9.14-3.16,9.14-3.16l7.51-.19-.94-7c2.19-2.84,2.14-9.72,2.14-9.72,0,0,.08-.86,1.01-.63,.93,.22,1.2,0,1.2,0,.12-3.51-2.25-7.13-2.25-7.13Zm-45.2-11.21c-5.81-1.61-2.42-4.95-2.42-4.95,3.51-1.9,4.66,2.76,4.66,2.76-2.3-.12-2.24,2.19-2.24,2.19Z"/>
          <path class="cls-1" d="M15.38,55.36s.27,.22,1.21,0c.92-.22,1,.64,1,.64,0,0-.07,6.88,2.14,9.71l-.94,7,7.51,.19s3.62,3.2,9.15,3.15c0,0,.25,.59,.25,1.63,0,0-.18,.81,.8,.91,.97,.12,9.03-.11,11.91-5.8,0,0,.77-.7-3.46-.41-4.89,.35-4.83-.81-4.83-.81,0,0-.06-.87-1.33,1.09,0,0-3.1,.99-8.05-3.5,0,0-1.63-1.31,.11-2.96,1.22-1.15,16.47-15.09,25.36-23.23l1.14,1.11c.83,.81,2.04,.9,2.72,.2,.68-.7,.55-1.91-.27-2.71l-.99-.97c.88-.8,1.65-1.51,2.24-2.05,1.72,.81,3.92,.54,5.54-.88,2.12-1.85,2.46-4.96,.73-6.94-1.72-1.98-4.85-2.07-6.97-.2-1.67,1.46-2.22,3.68-1.54,5.52l-2.57,2.06-.91-.9c-.85-.8-2.06-.89-2.73-.2-.68,.7-.55,1.91,.27,2.72l.61,.59-26.73,21.45s-.73,.73-1.65,.26c-.91-.47-4.01-2.42-3.62-8.52,0,0,2.01-.98,1.5-4.54,0,0,0-3.69,.8-4.49,0,0-.28-3.51-6.15,3.74,0,0-2.36,3.6-2.24,7.12Zm45.21-20.52s1.16-4.66,4.66-2.76c0,0,3.39,3.33-2.42,4.95,0,0,.06-2.3-2.24-2.19Z"/>
        </g>
        <g>
          <path class="cls-1" d="M20.84,93.97l.72,.51-1.19,6.47-.12,.06-1.2-.86,.26-1.12-2.09-1.49-.98,.6-1.16-.83v-.13s5.76-3.22,5.76-3.22Zm-.77,1.83l-1.91,1.17,1.41,1,.51-2.17Z"/>
          <path class="cls-1" d="M27.83,102.23l.11,2.68-.11,.07-1.3-.64-.1-2.59-.76-.37-1,2.05-1.31-.64,2.67-5.45,2.35,1.15c.68,.33,1.12,.74,1.33,1.22,.21,.48,.19,1-.08,1.54-.17,.35-.42,.61-.73,.78-.31,.16-.67,.23-1.08,.19Zm.04-2.66l-1.05-.51-.7,1.43,1.05,.51c.22,.11,.44,.13,.64,.07,.21-.06,.36-.19,.46-.41,.11-.22,.12-.43,.05-.63-.08-.2-.23-.36-.45-.47Z"/>
          <path class="cls-1" d="M38.08,104.72l.08,.12c-.01,.08-.05,.23-.11,.44-.25,.83-.74,1.44-1.48,1.83-.76,.4-1.57,.47-2.43,.22-.87-.26-1.52-.76-1.93-1.51-.41-.75-.49-1.55-.24-2.42,.26-.87,.76-1.5,1.53-1.9,.76-.4,1.57-.47,2.44-.21,.49,.14,.92,.38,1.28,.7,.36,.32,.63,.7,.81,1.13l-.03,.11-1.07,.47-.11-.03c-.24-.57-.64-.94-1.22-1.11-.47-.14-.92-.09-1.34,.14-.42,.23-.71,.61-.86,1.12-.15,.51-.11,.97,.11,1.4,.23,.43,.59,.71,1.08,.86,.44,.13,.85,.11,1.23-.08,.29-.14,.51-.36,.66-.64l-1.56-.46,.3-1.03,2.87,.85Z"/>
          <path class="cls-1" d="M46.06,103.31l-.15,1.19-2.95-.37-.16,1.25,2.28,.28-.14,1.13-2.28-.28-.16,1.27,2.96,.37-.15,1.19-4.41-.55,.75-6.02,4.39,.55Z"/>
          <path class="cls-1" d="M53.09,106.93l-.13-3.61,1.46-.05,.22,6.09-.91,.03-3.21-3.5,.13,3.58-1.44,.05-.22-6.06,.9-.03,3.2,3.5Z"/>
          <path class="cls-1" d="M62.42,103.11l-1.87,.37,.95,4.78-1.44,.29-.95-4.78-1.86,.37-.23-1.17,5.17-1.03,.23,1.17Z"/>
          <path class="cls-1" d="M66.61,106.91l-1.9-5.76,1.38-.46,1.9,5.76-1.38,.46Z"/>
          <path class="cls-1" d="M74.27,101.11l-1.58-3.25,1.31-.64,2.67,5.48-.82,.4-4.35-1.89,1.57,3.22-1.3,.63-2.66-5.45,.81-.4,4.35,1.9Z"/>
          <path class="cls-1" d="M78.47,94.32l.72-.52,5.75,3.19v.13s-1.18,.86-1.18,.86l-.98-.6-2.08,1.5,.26,1.12-1.15,.83-.12-.05-1.21-6.47Zm1.49,1.31l.49,2.19,1.4-1.01-1.89-1.17Z"/>
        </g>
        <g>
          <path class="cls-1" d="M0,33.53l1.1-2.4c.32-.69,.72-1.14,1.21-1.36,.49-.22,1.02-.2,1.58,.06,.57,.26,.92,.65,1.07,1.16,.15,.52,.07,1.12-.25,1.81l-.5,1.08,1.9,.88-.61,1.32-5.51-2.54Zm3.19-.13l.5-1.09c.11-.23,.13-.45,.06-.65s-.22-.35-.45-.46c-.23-.11-.45-.12-.65-.05-.2,.08-.35,.23-.46,.47l-.5,1.09,1.5,.69Z"/>
          <path class="cls-1" d="M8.92,24.84l2.67,.25,.06,.12-.8,1.2-2.58-.25-.47,.7,1.89,1.27-.81,1.21-5.04-3.38,1.46-2.17c.42-.63,.88-1.01,1.39-1.16,.51-.15,1.01-.05,1.52,.29,.33,.22,.55,.5,.67,.83,.12,.33,.14,.7,.05,1.09Zm-2.63-.39l-.65,.97,1.33,.89,.65-.97c.14-.21,.19-.42,.16-.63-.03-.21-.15-.38-.34-.51-.2-.14-.41-.18-.62-.13s-.39,.18-.53,.38Z"/>
          <path class="cls-1" d="M11.91,15.73l.88,.81-2.01,2.18,.93,.85,1.56-1.69,.84,.77-1.56,1.69,.94,.87,2.03-2.2,.88,.81-3.01,3.26-4.46-4.12,3-3.25Z"/>
          <path class="cls-1" d="M17.91,10.58l.75,.93-2.19,1.77,.85,1.05,1.68-1.36,.72,.89-1.68,1.36,1.5,1.85-1.13,.92-3.82-4.72,3.32-2.69Z"/>
          <path class="cls-1" d="M24.53,6.39l.61,1.03-2.55,1.51,.64,1.08,1.98-1.17,.58,.98-1.98,1.17,.65,1.1,2.57-1.52,.61,1.03-3.82,2.26-3.09-5.22,3.8-2.26Z"/>
          <path class="cls-1" d="M32.69,9.48c-.86,.34-1.69,.35-2.5,.02-.81-.32-1.38-.9-1.71-1.74-.33-.83-.32-1.65,.05-2.44,.37-.79,.98-1.36,1.85-1.7,.47-.19,.95-.27,1.44-.24,.49,.04,.94,.17,1.36,.4l.04,.1-.56,1.03-.09,.04c-.55-.3-1.11-.33-1.7-.1-.47,.19-.81,.51-1.01,.96-.2,.45-.2,.92,0,1.41,.2,.49,.52,.83,.97,1.03,.46,.19,.92,.19,1.39,0,.58-.23,.97-.65,1.16-1.24l.09-.04,1.11,.36,.04,.09c-.14,.46-.38,.87-.71,1.23-.33,.36-.74,.63-1.22,.83Z"/>
          <path class="cls-1" d="M40.97,1.97l-1.86,.42,1.07,4.76-1.43,.32-1.07-4.76-1.85,.42-.26-1.17,5.15-1.16,.26,1.17Z"/>
          <path class="cls-1" d="M44.2,3.69l-.2-3.36,1.46-.09,.2,3.44c.03,.43,.17,.76,.44,1.01s.6,.36,1.01,.33c.4-.02,.72-.17,.96-.45,.24-.28,.34-.63,.32-1.06l-.2-3.44,1.42-.08,.2,3.36c.05,.85-.17,1.54-.65,2.08-.48,.54-1.14,.84-1.97,.89-.85,.05-1.55-.17-2.09-.65-.55-.49-.84-1.15-.89-1.99Z"/>
          <path class="cls-1" d="M56.9,4.12l1.02,2.48-.08,.11-1.44-.16-.97-2.4-.84-.09-.25,2.27-1.45-.16,.65-6.03,2.6,.28c.75,.08,1.31,.31,1.67,.69,.37,.38,.52,.88,.45,1.48-.04,.39-.18,.72-.42,.98-.24,.26-.55,.44-.95,.55Zm-.87-2.52l-1.16-.13-.17,1.59,1.16,.13c.25,.03,.46-.02,.63-.15,.17-.13,.27-.31,.3-.54,.03-.24-.03-.45-.17-.61-.14-.17-.34-.26-.58-.29Z"/>
          <path class="cls-1" d="M64.2,1.96l.85,.24,1.08,6.49-.09,.09-1.42-.4-.14-1.14-2.47-.69-.72,.9-1.37-.38-.03-.13,4.31-4.98Zm-.1,1.98l-1.4,1.75,1.66,.47-.26-2.21Z"/>
          <path class="cls-1" d="M76.14,10.96l1.8-3.13,1.27,.73-3.03,5.29-.79-.45-.88-4.67-1.78,3.11-1.25-.72,3.02-5.26,.78,.45,.87,4.66Z"/>
          <path class="cls-1" d="M84.16,12.24l.68,.57-1.66,6.36-.12,.05-1.13-.94,.34-1.1-1.97-1.64-1.02,.53-1.09-.91,.02-.13,5.96-2.79Zm-.9,1.77l-1.99,1.02,1.33,1.1,.67-2.13Z"/>
          <path class="cls-1" d="M91.55,19.53l.95,1.08-.04,.12-6.28,1.9-.57-.65,2.65-6,.13-.02,.99,1.12-1.86,3.79,4.03-1.34Z"/>
          <path class="cls-1" d="M95.21,24.52l.48,.74-3.5,5.57h-.13s-.8-1.23-.8-1.23l.65-.95-1.39-2.16-1.14,.2-.77-1.2,.06-.12,6.52-.86Zm-1.39,1.41l-2.21,.37,.93,1.45,1.27-1.83Z"/>
          <path class="cls-1" d="M94.8,33.89l1.04,2.33-1.09,.49-1.63-3.66,5.54-2.47,.59,1.33-4.45,1.98Z"/>
        </g>
      </g>
      <g>
        <g>
          <path class="cls-1" d="M117.49,85.67V12.79h17.47V85.67h-17.47Z"/>
          <path class="cls-1" d="M150.62,53.25V12.79h17.52V54.18c0,5.15,1.51,9.29,4.54,12.43,3.03,3.14,6.97,4.71,11.83,4.71s8.8-1.57,11.83-4.71c3.03-3.14,4.54-7.28,4.54-12.43V12.79h17.14V53.25c0,10.18-3.09,18.36-9.25,24.53-6.17,6.17-14.26,9.25-24.26,9.25s-18.42-3.08-24.59-9.25c-6.21-6.21-9.31-14.38-9.31-24.53Z"/>
          <path class="cls-1" d="M258.98,87.04c-6.5,0-12.47-1.19-17.91-3.56-5.51-2.34-9.91-5.53-13.2-9.58v-1.37l8.65-9.97h1.2c2.41,2.7,5.51,4.98,9.31,6.84,3.76,1.86,7.39,2.79,10.9,2.79s6.42-.65,8.51-1.94c2.1-1.3,3.15-3.04,3.15-5.23,0-1.97-.68-3.52-2.03-4.65-.58-.47-1.5-.99-2.74-1.53-1.46-.58-2.48-.97-3.07-1.15-.26-.07-.57-.16-.93-.27-.37-.11-.85-.25-1.45-.44-.6-.18-1.14-.35-1.62-.49-.69-.18-1.52-.41-2.46-.68-.95-.27-1.53-.45-1.75-.52-5.69-1.75-10.6-4.14-14.73-7.17-4.96-3.65-7.45-8.71-7.45-15.17s2.54-11.57,7.61-15.55c5.07-3.98,11.68-5.97,19.82-5.97,5.8,0,11.12,1,15.93,3.01,4.78,2.01,8.6,4.67,11.44,7.99v1.2l-8.6,9.91h-1.26c-5.11-5.26-10.86-7.92-17.25-7.99-2.96,0-5.35,.59-7.17,1.78-1.83,1.19-2.74,2.77-2.74,4.74,0,2.26,1.2,4.07,3.61,5.42,1.46,.8,2.61,1.37,3.45,1.7,.58,.22,2.04,.77,4.38,1.64,8.1,2.59,13.71,4.76,16.81,6.52,6.68,4.02,10.06,9.88,10.13,17.58,0,6.86-2.72,12.27-8.16,16.21-5.48,3.94-12.28,5.91-20.42,5.91Z"/>
          <path class="cls-1" d="M372.55,12.79l10.08,72.88h-16.15l-4.49-39.37-17.36,39.37h-9.8l-17.03-39.37-4.6,39.37h-17.25l10.18-72.88h10.24l23.33,50.21,22.72-50.21h10.13Z"/>
        </g>
        <g>
          <path class="cls-1" d="M118.45,104.99v-6.62h.73v6.62h-.73Z"/>
          <path class="cls-1" d="M126.11,103.64v-5.27h.72v6.72h-.33l-4.29-5.26v5.16h-.71v-6.62h.32l4.29,5.27Z"/>
          <path class="cls-1" d="M131.09,105.12c-.52,0-1.01-.12-1.47-.35-.47-.24-.85-.57-1.12-.98v-.06l.47-.41h.06c.26,.35,.57,.62,.93,.82,.36,.2,.72,.3,1.08,.3,.48,0,.86-.11,1.15-.32,.28-.21,.42-.48,.42-.82,0-.19-.03-.36-.1-.49-.07-.13-.19-.25-.35-.36-.18-.11-.33-.19-.44-.24-.12-.05-.33-.13-.62-.22-.3-.1-.51-.17-.64-.22-.24-.09-.42-.17-.56-.24-.14-.07-.3-.17-.49-.31-.38-.27-.57-.67-.57-1.19s.2-.95,.6-1.28c.4-.33,.92-.5,1.57-.5,.94,0,1.67,.34,2.18,1.02v.06l-.45,.42h-.06c-.44-.55-1-.83-1.67-.83-.41,0-.75,.09-1.01,.28-.27,.2-.4,.44-.4,.75s.1,.53,.31,.68c.2,.16,.52,.32,.97,.48,.09,.03,.23,.08,.42,.15,.22,.08,.37,.13,.44,.16,.1,.03,.23,.09,.41,.16,.17,.08,.3,.15,.4,.21,.27,.18,.47,.37,.59,.58,.15,.25,.22,.55,.22,.9,0,.56-.21,1-.63,1.34-.42,.34-.97,.51-1.65,.51Z"/>
          <path class="cls-1" d="M139.39,99.02h-2.2v5.97h-.73v-5.97h-2.2v-.65h5.13v.65Z"/>
          <path class="cls-1" d="M140.88,104.99v-6.62h.73v6.62h-.73Z"/>
          <path class="cls-1" d="M148.24,99.02h-2.2v5.97h-.73v-5.97h-2.2v-.65h5.13v.65Z"/>
          <path class="cls-1" d="M149.64,102.41v-4.03h.74v4.01c0,.62,.19,1.11,.56,1.49,.37,.38,.86,.57,1.47,.57s1.11-.19,1.48-.57c.37-.37,.56-.87,.56-1.49v-4.01h.71v4.03c0,.82-.25,1.47-.75,1.96-.5,.5-1.17,.75-2,.75s-1.5-.25-2-.75c-.51-.49-.77-1.15-.77-1.96Z"/>
          <path class="cls-1" d="M161.7,99.02h-2.2v5.97h-.73v-5.97h-2.2v-.65h5.13v.65Z"/>
          <path class="cls-1" d="M168.34,104.13c-.67,.66-1.5,.98-2.49,.98s-1.82-.33-2.49-.98c-.67-.66-1-1.47-1-2.45s.33-1.8,1-2.45c.67-.65,1.5-.98,2.49-.98s1.82,.33,2.49,.98c.67,.66,1,1.47,1,2.45s-.33,1.8-1,2.45Zm-4.46-.47c.52,.52,1.18,.78,1.96,.78s1.44-.26,1.96-.78c.52-.52,.79-1.18,.79-1.98s-.26-1.46-.79-1.98c-.52-.52-1.18-.78-1.96-.78s-1.44,.26-1.96,.78c-.52,.52-.79,1.18-.79,1.98s.26,1.46,.79,1.98Z"/>
          <path class="cls-1" d="M174.01,102.41v-4.03h.74v4.01c0,.62,.19,1.11,.56,1.49,.37,.38,.86,.57,1.47,.57s1.11-.19,1.48-.57c.37-.37,.56-.87,.56-1.49v-4.01h.71v4.03c0,.82-.25,1.47-.75,1.96-.5,.5-1.17,.75-2,.75s-1.5-.25-2-.75c-.51-.49-.77-1.15-.77-1.96Z"/>
          <path class="cls-1" d="M186.37,103.64v-5.27h.72v6.72h-.33l-4.29-5.26v5.16h-.71v-6.62h.32l4.29,5.27Z"/>
          <path class="cls-1" d="M189.41,104.99v-6.62h.73v6.62h-.73Z"/>
          <path class="cls-1" d="M196.95,98.37h.74l.03,.06-2.85,6.56h-.33l-2.85-6.56,.03-.06h.77l2.22,5.26,2.24-5.26Z"/>
          <path class="cls-1" d="M203.68,98.37v.65h-3.67v2.3h2.92v.65h-2.92v2.36h3.67v.65h-4.4v-6.62h4.4Z"/>
          <path class="cls-1" d="M210.32,100.29c0,.48-.13,.87-.38,1.18-.25,.31-.62,.52-1.11,.63l1.49,2.83-.03,.06h-.72l-1.47-2.8h-1.86v2.8h-.73v-6.62h2.48c.75,0,1.33,.17,1.73,.5,.4,.33,.6,.81,.6,1.41Zm-2.14-1.26h-1.94v2.54h1.94c.43,0,.77-.12,1.02-.36,.25-.24,.37-.55,.37-.92s-.12-.67-.37-.91c-.24-.23-.58-.35-1.02-.35Z"/>
          <path class="cls-1" d="M214.14,105.12c-.52,0-1.01-.12-1.47-.35-.47-.24-.85-.57-1.12-.98v-.06l.47-.41h.06c.26,.35,.57,.62,.93,.82,.36,.2,.72,.3,1.08,.3,.48,0,.86-.11,1.15-.32,.28-.21,.42-.48,.42-.82,0-.19-.03-.36-.1-.49-.07-.13-.19-.25-.35-.36-.18-.11-.33-.19-.44-.24-.12-.05-.33-.13-.62-.22-.3-.1-.51-.17-.64-.22-.24-.09-.42-.17-.56-.24-.14-.07-.3-.17-.49-.31-.38-.27-.57-.67-.57-1.19s.2-.95,.6-1.28c.4-.33,.92-.5,1.57-.5,.94,0,1.67,.34,2.18,1.02v.06l-.45,.42h-.06c-.44-.55-1-.83-1.67-.83-.41,0-.75,.09-1.01,.28-.27,.2-.4,.44-.4,.75s.1,.53,.31,.68c.2,.16,.52,.32,.97,.48,.09,.03,.23,.08,.42,.15,.22,.08,.37,.13,.44,.16,.1,.03,.23,.09,.41,.16,.17,.08,.3,.15,.4,.21,.27,.18,.47,.37,.59,.58,.15,.25,.22,.55,.22,.9,0,.56-.21,1-.63,1.34-.42,.34-.97,.51-1.65,.51Z"/>
          <path class="cls-1" d="M218.21,104.99v-6.62h.73v6.62h-.73Z"/>
          <path class="cls-1" d="M225.57,99.02h-2.2v5.97h-.73v-5.97h-2.2v-.65h5.13v.65Z"/>
          <path class="cls-1" d="M228.64,98.37h.33l3.05,6.56-.03,.06h-.72l-.69-1.5h-3.6l-.69,1.5h-.7l-.03-.06,3.07-6.56Zm.15,1.2l-1.51,3.27h2.99l-1.49-3.27Z"/>
          <path class="cls-1" d="M238.36,100.29c0,.48-.13,.87-.38,1.18-.25,.31-.62,.52-1.11,.63l1.49,2.83-.03,.06h-.72l-1.47-2.8h-1.86v2.8h-.73v-6.62h2.48c.75,0,1.33,.17,1.73,.5,.4,.33,.6,.81,.6,1.41Zm-2.14-1.26h-1.94v2.54h1.94c.43,0,.77-.12,1.02-.36,.25-.24,.37-.55,.37-.92s-.12-.67-.37-.91c-.24-.23-.58-.35-1.02-.35Z"/>
          <path class="cls-1" d="M240.25,104.99v-6.62h.73v6.62h-.73Z"/>
          <path class="cls-1" d="M248.79,104.13c-.67,.66-1.5,.98-2.49,.98s-1.82-.33-2.49-.98-1-1.47-1-2.45,.33-1.8,1-2.45c.67-.65,1.5-.98,2.49-.98s1.82,.33,2.49,.98c.67,.66,1,1.47,1,2.45s-.33,1.8-1,2.45Zm-4.46-.47c.52,.52,1.18,.78,1.96,.78s1.44-.26,1.96-.78c.52-.52,.79-1.18,.79-1.98s-.26-1.46-.79-1.98c-.52-.52-1.18-.78-1.96-.78s-1.44,.26-1.96,.78c-.52,.52-.79,1.18-.79,1.98s.26,1.46,.79,1.98Z"/>
          <path class="cls-1" d="M254.56,98.37h2.52c1.03,0,1.86,.3,2.5,.91,.63,.6,.95,1.4,.95,2.39s-.32,1.8-.95,2.41c-.63,.61-1.46,.92-2.5,.92h-2.52v-6.62Zm.73,5.97h1.79c.82,0,1.47-.24,1.96-.73,.49-.48,.74-1.12,.74-1.93s-.25-1.44-.74-1.93c-.49-.48-1.15-.73-1.96-.73h-1.79v5.32Z"/>
          <path class="cls-1" d="M266.76,98.37v.65h-3.67v2.3h2.92v.65h-2.92v2.36h3.67v.65h-4.4v-6.62h4.4Z"/>
          <path class="cls-1" d="M273.45,105.12c-.52,0-1.01-.12-1.47-.35-.47-.24-.85-.57-1.12-.98v-.06l.47-.41h.06c.26,.35,.57,.62,.93,.82,.36,.2,.72,.3,1.08,.3,.48,0,.86-.11,1.15-.32,.28-.21,.42-.48,.42-.82,0-.19-.03-.36-.1-.49-.07-.13-.19-.25-.35-.36-.18-.11-.33-.19-.44-.24-.12-.05-.33-.13-.62-.22-.3-.1-.51-.17-.64-.22-.24-.09-.42-.17-.56-.24-.14-.07-.3-.17-.49-.31-.38-.27-.57-.67-.57-1.19s.2-.95,.6-1.28c.4-.33,.92-.5,1.57-.5,.94,0,1.67,.34,2.18,1.02v.06l-.45,.42h-.06c-.44-.55-1-.83-1.67-.83-.41,0-.75,.09-1.01,.28-.27,.2-.4,.44-.4,.75s.1,.53,.31,.68c.2,.16,.52,.32,.97,.48,.09,.03,.23,.08,.42,.15,.22,.08,.37,.13,.44,.16,.1,.03,.23,.09,.41,.16,.17,.08,.3,.15,.4,.21,.27,.18,.47,.37,.59,.58,.15,.25,.22,.55,.22,.9,0,.56-.21,1-.63,1.34-.42,.34-.97,.51-1.65,.51Z"/>
          <path class="cls-1" d="M281.92,98.37v.65h-3.67v2.3h2.92v.65h-2.92v2.36h3.67v.65h-4.4v-6.62h4.4Z"/>
          <path class="cls-1" d="M289.64,101.43l.06,.06c.01,.07,.02,.17,.02,.3,0,.92-.31,1.7-.92,2.33-.65,.67-1.44,1-2.38,1s-1.77-.32-2.41-.97c-.65-.65-.97-1.47-.97-2.46s.33-1.81,.99-2.46c.66-.65,1.46-.97,2.41-.97,.53,0,1.03,.11,1.5,.34,.46,.23,.85,.54,1.16,.94v.06l-.49,.4h-.06c-.25-.34-.55-.6-.93-.79-.37-.19-.77-.29-1.19-.29-.75,0-1.37,.26-1.88,.78-.51,.51-.77,1.18-.77,1.98s.25,1.48,.75,1.99c.49,.51,1.12,.77,1.87,.77s1.39-.26,1.9-.79c.43-.45,.65-.98,.65-1.57h-2.54v-.65h3.22Z"/>
          <path class="cls-1" d="M291.32,102.41v-4.03h.74v4.01c0,.62,.19,1.11,.56,1.49,.37,.38,.86,.57,1.47,.57s1.11-.19,1.48-.57c.37-.37,.56-.87,.56-1.49v-4.01h.71v4.03c0,.82-.25,1.47-.75,1.96-.5,.5-1.17,.75-2,.75s-1.5-.25-2-.75c-.51-.49-.77-1.15-.77-1.96Z"/>
          <path class="cls-1" d="M303.89,100.29c0,.48-.13,.87-.38,1.18-.25,.31-.62,.52-1.11,.63l1.49,2.83-.03,.06h-.72l-1.47-2.8h-1.86v2.8h-.73v-6.62h2.48c.75,0,1.33,.17,1.73,.5,.4,.33,.6,.81,.6,1.41Zm-2.14-1.26h-1.94v2.54h1.94c.43,0,.77-.12,1.02-.36,.25-.24,.37-.55,.37-.92s-.12-.67-.37-.91c-.24-.23-.58-.35-1.02-.35Z"/>
          <path class="cls-1" d="M305.78,104.99v-6.62h.73v6.62h-.73Z"/>
          <path class="cls-1" d="M308.83,98.37h2.52c1.03,0,1.86,.3,2.5,.91,.63,.6,.95,1.4,.95,2.39s-.32,1.8-.95,2.41c-.63,.61-1.46,.92-2.5,.92h-2.52v-6.62Zm.73,5.97h1.79c.82,0,1.47-.24,1.96-.73,.49-.48,.74-1.12,.74-1.93s-.25-1.44-.74-1.93c-.49-.48-1.15-.73-1.96-.73h-1.79v5.32Z"/>
          <path class="cls-1" d="M318.7,98.37h.33l3.05,6.56-.03,.06h-.72l-.69-1.5h-3.6l-.69,1.5h-.7l-.03-.06,3.07-6.56Zm.15,1.2l-1.51,3.27h2.99l-1.49-3.27Z"/>
          <path class="cls-1" d="M323.61,98.37h2.52c1.03,0,1.86,.3,2.5,.91,.63,.6,.95,1.4,.95,2.39s-.32,1.8-.95,2.41c-.63,.61-1.46,.92-2.5,.92h-2.52v-6.62Zm.73,5.97h1.79c.82,0,1.47-.24,1.96-.73,.49-.48,.74-1.12,.74-1.93s-.25-1.44-.74-1.93c-.49-.48-1.15-.73-1.96-.73h-1.79v5.32Z"/>
          <path class="cls-1" d="M340.35,98.37l.72,6.62h-.68l-.5-4.78-2.21,4.78h-.32l-2.17-4.76-.5,4.76h-.68l.72-6.62h.33l2.46,5.46,2.51-5.46h.33Z"/>
          <path class="cls-1" d="M345.33,98.37h.33l3.05,6.56-.03,.06h-.72l-.69-1.5h-3.6l-.69,1.5h-.7l-.03-.06,3.07-6.56Zm.15,1.2l-1.51,3.27h2.99l-1.49-3.27Z"/>
          <path class="cls-1" d="M355.05,100.29c0,.48-.13,.87-.38,1.18-.25,.31-.62,.52-1.11,.63l1.49,2.83-.03,.06h-.72l-1.47-2.8h-1.86v2.8h-.73v-6.62h2.48c.75,0,1.33,.17,1.73,.5,.4,.33,.6,.81,.6,1.41Zm-2.14-1.26h-1.94v2.54h1.94c.43,0,.77-.12,1.02-.36,.25-.24,.37-.55,.37-.92s-.12-.67-.37-.91c-.24-.23-.58-.35-1.02-.35Z"/>
          <path class="cls-1" d="M356.1,97.38l1.82-1.21h.05l.37,.55v.05l-1.95,1.01h-.05l-.23-.35v-.05Zm.84,7.61v-6.62h.73v6.62h-.73Z"/>
          <path class="cls-1" d="M364.29,99.02h-2.2v5.97h-.73v-5.97h-2.2v-.65h5.13v.65Z"/>
          <path class="cls-1" d="M365.79,104.99v-6.62h.73v6.62h-.73Z"/>
          <path class="cls-1" d="M374.85,98.37l.72,6.62h-.68l-.5-4.78-2.21,4.78h-.32l-2.17-4.76-.5,4.76h-.68l.72-6.62h.33l2.46,5.46,2.51-5.46h.33Z"/>
          <path class="cls-1" d="M379.83,98.37h.33l3.05,6.56-.03,.06h-.72l-.69-1.5h-3.6l-.69,1.5h-.7l-.03-.06,3.07-6.56Zm.15,1.2l-1.51,3.27h2.99l-1.49-3.27Z"/>
        </g>
      </g>
    </g>
  </g>
</svg>