<?xml version="1.0" encoding="utf-8"?>
<!-- Generator: Adobe Illustrator 26.5.0, SVG Export Plug-In . SVG Version: 6.00 Build 0)  -->
<svg version="1.1" id="Capa_1" xmlns="http://www.w3.org/2000/svg" xmlns:xlink="http://www.w3.org/1999/xlink" x="0px" y="0px"
	 viewBox="0 0 67.45 67.45" style="enable-background:new 0 0 67.45 67.45;" xml:space="preserve">
<style type="text/css">
	.st0{fill:#1176A5;}
</style>
<path class="st0" d="M48.2,0H19.25C8.62,0,0,8.62,0,19.25V48.2c0,10.63,8.62,19.25,19.25,19.25H48.2c10.63,0,19.25-8.62,19.25-19.25
	V19.25C67.45,8.62,58.83,0,48.2,0z M47.95,36.72H36.72v11.23c0,1.66-1.34,3-3,3s-3-1.34-3-3V36.72H19.5c-1.66,0-3-1.34-3-3
	s1.34-3,3-3h11.23V19.5c0-1.66,1.34-3,3-3s3,1.34,3,3v11.23h11.23c1.66,0,3,1.34,3,3S49.61,36.72,47.95,36.72z"/>
</svg>
