<?xml version="1.0" encoding="utf-8"?>
<!-- Generator: Adobe Illustrator 25.0.0, SVG Export Plug-In . SVG Version: 6.00 Build 0)  -->
<svg version="1.1" id="Capa_2_1_" xmlns="http://www.w3.org/2000/svg" xmlns:xlink="http://www.w3.org/1999/xlink" x="0px" y="0px"
	 viewBox="0 0 44.5 31.9" style="enable-background:new 0 0 44.5 31.9;" xml:space="preserve">
<style type="text/css">
	.st0{fill:#0B75A4;}
	.st1{fill:#FFFFFF;}
</style>
<circle class="st0" cx="22.3" cy="15.9" r="15.2"/>
<g>
	<path class="st1" d="M18.8,21.9V21l3.3-4.3c0.4-0.5,0.7-0.9,0.9-1.3c0.2-0.4,0.4-0.7,0.5-1c0.1-0.3,0.1-0.6,0.1-0.9
		c0-0.7-0.2-1.2-0.6-1.5c-0.4-0.3-1-0.5-1.8-0.5c-0.5,0-0.9,0-1.3,0.1c-0.4,0.1-0.8,0.2-1.2,0.3v-1.4c0.2-0.1,0.5-0.2,0.8-0.2
		c0.3-0.1,0.6-0.1,0.9-0.2c0.3,0,0.7-0.1,1-0.1c1.3,0,2.2,0.3,2.9,0.8c0.7,0.5,1,1.3,1,2.4c0,0.4-0.1,0.8-0.2,1.2
		c-0.1,0.4-0.3,0.8-0.6,1.3c-0.3,0.4-0.6,1-1,1.5l-2.9,3.7l-0.1-0.5h5.3v1.4H18.8z"/>
</g>
</svg>
