<?xml version="1.0" encoding="utf-8"?>
<!-- Generator: Adobe Illustrator 26.5.0, SVG Export Plug-In . SVG Version: 6.00 Build 0)  -->
<svg version="1.1" id="Capa_1" xmlns="http://www.w3.org/2000/svg" xmlns:xlink="http://www.w3.org/1999/xlink" x="0px" y="0px"
	 viewBox="0 0 190.3 13.2" style="enable-background:new 0 0 190.3 13.2;" xml:space="preserve">
<style type="text/css">
	.st0{fill:#FFFFFF;}
</style>
<g>
	<g>
		<g>
			<path class="st0" d="M0,12.6V1.1h3.4l4.7,7.3H7.6V1.1h3.2v11.6H7.4L2.7,5.3h0.5v7.3H0z"/>
		</g>
		<g>
			<path class="st0" d="M18.2,12.8c-1.2,0-2.2-0.2-3.1-0.7c-0.9-0.4-1.6-1.1-2.1-2s-0.7-2-0.7-3.3s0.2-2.4,0.7-3.3s1.2-1.5,2.1-2
				C16,1.1,17,0.8,18.2,0.8c1.2,0,2.2,0.2,3.1,0.7c0.9,0.4,1.6,1.1,2.1,2s0.7,2,0.7,3.3s-0.2,2.4-0.7,3.3s-1.2,1.5-2.1,2
				S19.4,12.8,18.2,12.8z M18.2,10.1c0.5,0,1-0.1,1.3-0.3c0.4-0.2,0.6-0.6,0.8-1c0.2-0.5,0.3-1.1,0.3-1.8c0-0.8-0.1-1.4-0.3-1.9
				S19.8,4.3,19.5,4c-0.4-0.2-0.8-0.3-1.3-0.3s-1,0.1-1.3,0.3c-0.3,0.2-0.6,0.6-0.8,1c-0.3,0.4-0.4,1-0.4,1.8s0.1,1.4,0.3,1.9
				s0.5,0.8,0.8,1.1C17.2,10,17.6,10.1,18.2,10.1z"/>
		</g>
		<g>
			<path class="st0" d="M28.2,12.6V3.9h-3.5V1.1h10.5v2.8h-3.5v8.8L28.2,12.6L28.2,12.6z"/>
		</g>
		<g>
			<path class="st0" d="M35.3,12.6L38.8,1h5l3.5,11.6H44L41.2,2.5h0.3l-2.8,10.1H35.3z M38.2,10l0.7-2.7h4.7l0.7,2.7H38.2z"/>
		</g>
		<g>
			<path class="st0" d="M51.5,12.8c-0.6,0-1.2,0-1.9-0.1c-0.6-0.1-1.2-0.2-1.6-0.4V9.6c0.3,0.1,0.7,0.2,1.1,0.3
				c0.4,0.1,0.8,0.1,1.2,0.2c0.4,0,0.8,0.1,1.2,0.1c0.7,0,1.1-0.1,1.3-0.2c0.2-0.2,0.3-0.4,0.3-0.6c0-0.2-0.1-0.4-0.2-0.5
				c-0.2-0.1-0.5-0.3-1-0.4l-1-0.3c-1-0.3-1.8-0.7-2.4-1.2c-0.5-0.6-0.8-1.3-0.8-2.2c0-1.2,0.4-2.1,1.3-2.8s2.2-1,4-1
				c0.6,0,1.1,0,1.6,0.1s0.9,0.1,1.3,0.2V4c-0.4-0.1-0.8-0.2-1.2-0.3c-0.5-0.1-1-0.1-1.4-0.1c-0.6,0-1,0-1.3,0.1S51.5,3.9,51.4,4
				s-0.2,0.3-0.2,0.4c0,0.2,0.1,0.3,0.2,0.5c0.1,0.1,0.4,0.2,0.9,0.4l1,0.3c0.8,0.2,1.4,0.4,1.9,0.7c0.5,0.3,0.9,0.7,1.1,1.1
				c0.2,0.5,0.4,1,0.4,1.6c0,0.8-0.2,1.4-0.6,2c-0.4,0.6-1,1-1.7,1.3C53.4,12.7,52.5,12.8,51.5,12.8z"/>
		</g>
		<g>
			<path class="st0" d="M61.7,12.6V1.4c0.4-0.1,0.8-0.2,1.3-0.2c0.4-0.1,0.9-0.1,1.4-0.2s0.9-0.1,1.4-0.1c1.8,0,3.1,0.3,4,1
				c0.9,0.6,1.4,1.6,1.4,3c0,0.9-0.2,1.6-0.6,2.2c-0.4,0.6-1,1-1.8,1.3s-1.6,0.4-2.6,0.4c-0.2,0-0.3,0-0.5,0s-0.3,0-0.5,0v3.9h-3.5
				V12.6z M68.4,12.6l-3.5-5.3h3.6l3.6,5.3H68.4z M66.1,6.3c0.6,0,1-0.1,1.3-0.3c0.3-0.2,0.5-0.6,0.5-1.1c0-0.3-0.1-0.6-0.2-0.8
				c-0.1-0.2-0.3-0.4-0.6-0.5s-0.6-0.2-1-0.2c-0.2,0-0.4,0-0.5,0c-0.2,0-0.3,0-0.5,0.1v2.8c0.1,0,0.2,0,0.3,0s0.2,0,0.3,0
				C65.9,6.3,66,6.3,66.1,6.3z"/>
		</g>
		<g>
			<path class="st0" d="M72.9,12.6V1.1h8.8v2.7h-5.5V10h5.5v2.7L72.9,12.6L72.9,12.6z M74.9,8.1V5.4h6v2.7
				C80.9,8.1,74.9,8.1,74.9,8.1z"/>
		</g>
		<g>
			<path class="st0" d="M83.2,12.6V1.1h3.4v8.8h5.1v2.8h-8.5V12.6z"/>
		</g>
		<g>
			<path class="st0" d="M91.8,12.6L95.3,1h5l3.5,11.6h-3.3L97.7,2.5H98l-2.8,10.1H91.8z M94.7,10l0.7-2.7h4.7l0.7,2.7H94.7z"/>
		</g>
		<g>
			<path class="st0" d="M111,12.8c-1.1,0-2-0.1-2.8-0.4c-0.8-0.2-1.5-0.6-2.1-1.1s-1-1.1-1.3-1.8s-0.4-1.6-0.4-2.6
				c0-1.3,0.3-2.4,0.8-3.3s1.3-1.6,2.3-2c1-0.5,2.2-0.7,3.7-0.7c0.4,0,0.9,0,1.3,0.1c0.4,0,0.8,0.1,1.2,0.2V4
				c-0.3-0.1-0.7-0.1-1.1-0.2c-0.4,0-0.7-0.1-1.1-0.1c-0.8,0-1.5,0.1-2,0.3c-0.5,0.2-0.9,0.6-1.1,1c-0.2,0.5-0.4,1.1-0.4,1.8
				s0.1,1.4,0.4,1.8c0.2,0.5,0.6,0.8,1.1,1s1.1,0.3,1.9,0.3c0.4,0,0.8,0,1.1-0.1c0.4-0.1,0.8-0.1,1.1-0.2v2.8
				c-0.4,0.1-0.8,0.2-1.2,0.3S111.4,12.8,111,12.8z"/>
		</g>
		<g>
			<path class="st0" d="M114.9,12.6V1.1h3.4v11.6h-3.4V12.6z"/>
		</g>
		<g>
			<path class="st0" d="M125.6,12.8c-1.2,0-2.2-0.2-3.1-0.7c-0.9-0.4-1.6-1.1-2.1-2s-0.7-2-0.7-3.3s0.2-2.4,0.7-3.3s1.2-1.5,2.1-2
				c0.9-0.4,1.9-0.7,3.1-0.7s2.2,0.2,3.1,0.7c0.9,0.4,1.6,1.1,2.1,2s0.7,2,0.7,3.3s-0.2,2.4-0.7,3.3s-1.2,1.5-2.1,2
				S126.8,12.8,125.6,12.8z M125.6,10.1c0.5,0,1-0.1,1.3-0.3c0.4-0.2,0.6-0.6,0.8-1c0.2-0.5,0.3-1.1,0.3-1.8c0-0.8-0.1-1.4-0.3-1.9
				c-0.2-0.5-0.5-0.8-0.8-1.1c-0.4-0.2-0.8-0.3-1.3-0.3s-1,0.1-1.3,0.3c-0.4,0.2-0.6,0.6-0.8,1s-0.3,1.1-0.3,1.8
				c0,0.8,0.1,1.4,0.3,1.9c0.2,0.5,0.5,0.8,0.8,1.1C124.6,10,125.1,10.1,125.6,10.1z"/>
		</g>
		<g>
			<path class="st0" d="M132.9,12.6V1.1h3.4l4.7,7.3h-0.5V1.1h3.2v11.6h-3.4l-4.7-7.3h0.5v7.3h-3.2V12.6z"/>
		</g>
		<g>
			<path class="st0" d="M144.6,12.6L148.1,1h5l3.5,11.6h-3.3l-2.8-10.1h0.3L148,12.6H144.6z M147.5,10l0.7-2.7h4.7l0.7,2.7H147.5z"
				/>
		</g>
		<g>
			<path class="st0" d="M160.9,12.8c-0.3,0-0.7,0-1.1,0s-0.8,0-1.2-0.1c-0.4,0-0.8-0.1-1.2-0.1V1.4c0.4-0.1,0.8-0.2,1.3-0.2
				c0.5-0.1,0.9-0.1,1.4-0.2c0.5,0,1-0.1,1.4-0.1c2.2,0,3.9,0.5,5.1,1.4c1.1,1,1.7,2.5,1.7,4.5c0,1.4-0.3,2.5-0.8,3.4
				s-1.4,1.5-2.5,1.9C164,12.6,162.6,12.8,160.9,12.8z M161.9,10.1c0.7,0,1.2-0.1,1.7-0.3c0.4-0.2,0.8-0.5,1-1s0.3-1.1,0.3-1.9
				s-0.1-1.4-0.3-1.9c-0.2-0.5-0.6-0.8-1-1c-0.4-0.2-1-0.3-1.7-0.3c-0.1,0-0.3,0-0.5,0s-0.4,0-0.5,0.1V10c0.2,0,0.4,0,0.5,0
				C161.5,10.1,161.7,10.1,161.9,10.1z"/>
		</g>
		<g>
			<path class="st0" d="M168.9,12.6L172.4,1h5l3.5,11.6h-3.3l-2.9-10.1h0.3l-2.8,10.1H168.9z M171.8,10l0.7-2.7h4.7l0.7,2.7H171.8z"
				/>
		</g>
		<g>
			<path class="st0" d="M185.1,12.8c-0.6,0-1.2,0-1.9-0.1c-0.6-0.1-1.2-0.2-1.6-0.4V9.6c0.3,0.1,0.7,0.2,1.1,0.3s0.8,0.1,1.2,0.2
				c0.4,0,0.8,0.1,1.2,0.1c0.7,0,1.1-0.1,1.3-0.2c0.2-0.2,0.3-0.4,0.3-0.6c0-0.2-0.1-0.4-0.2-0.5c-0.2-0.1-0.5-0.3-1-0.4l-1-0.3
				c-1-0.3-1.8-0.7-2.4-1.2c-0.5-0.6-0.8-1.3-0.8-2.2c0-1.2,0.4-2.1,1.3-2.8s2.2-1,4-1c0.6,0,1.1,0,1.6,0.1s0.9,0.1,1.3,0.2V4
				c-0.4-0.1-0.8-0.2-1.2-0.3c-0.5-0.1-1-0.1-1.4-0.1c-0.6,0-1,0-1.3,0.1S185.1,3.9,185,4s-0.2,0.3-0.2,0.4c0,0.2,0.1,0.3,0.2,0.5
				c0.1,0.1,0.4,0.2,0.9,0.4l1,0.3c0.8,0.2,1.4,0.4,1.9,0.7c0.5,0.3,0.9,0.7,1.1,1.1c0.2,0.5,0.4,1,0.4,1.6c0,0.8-0.2,1.4-0.6,2
				s-1,1-1.7,1.3C187,12.7,186.1,12.8,185.1,12.8z"/>
		</g>
	</g>
</g>
</svg>
