<?xml version="1.0" encoding="utf-8"?>
<!-- Generator: Adobe Illustrator 26.5.0, SVG Export Plug-In . SVG Version: 6.00 Build 0)  -->
<svg version="1.1" id="Capa_1" xmlns="http://www.w3.org/2000/svg" xmlns:xlink="http://www.w3.org/1999/xlink" x="0px" y="0px"
	 viewBox="0 0 677.72 50.85" style="enable-background:new 0 0 677.72 50.85;" xml:space="preserve">
<style type="text/css">
	.st0{fill:none;stroke:#1176A5;stroke-width:4;stroke-linecap:round;stroke-miterlimit:10;}
	.st1{fill:#1176A5;}
	.st2{fill:#FFFFFF;}
</style>
<g>
	<line class="st0" x1="0" y1="25.52" x2="677.72" y2="25.52"/>
	<circle class="st1" cx="338.86" cy="25.43" r="25.43"/>
	<path class="st2" d="M335.02,32.77c1.07,0.92,2.28,0.12,3.46,0.55c-0.24,0.35-0.41,0.7-0.67,0.95c-1.09,1.05-2.44,1.44-3.93,1.38
		c-0.16-0.01-0.43-0.28-0.43-0.43c-0.01-0.47-0.29-0.48-0.63-0.55c-0.69-0.16-1.44-0.26-2.02-0.61c-0.82-0.5-1.68-0.56-2.57-0.6
		c-0.38-0.02-0.77,0-1.22,0c0.06-0.61,0.07-1.16,0.18-1.69c0.13-0.61,0.03-1.13-0.17-1.71c-0.26-0.76-0.39-1.58-0.44-2.39
		c-0.04-0.57-0.08-0.98-0.94-0.82c0.11-0.55,0.17-1.03,0.3-1.48c0.35-1.26,1.17-2.18,2.2-2.93c0.18-0.13,0.48-0.09,0.72-0.13
		c0.01,0.21,0.03,0.42,0.01,0.62c-0.04,0.61-0.06,1.22-0.16,1.82c-0.06,0.39-0.15,0.82-0.36,1.13c-0.61,0.89,0.18,3.16,1.25,3.41
		c0.13,0.03,0.33-0.04,0.44-0.13c2.49-1.99,4.97-3.98,7.52-6.02c-0.32-0.3-0.62-0.57-0.93-0.86c-0.48,0.3-0.93,1.03-1.55,0.35
		c-0.49-0.54,0.02-0.97,0.4-1.39c-0.36-0.39-0.64-0.72-1.31-0.59c-1.07,0.21-2.06-0.62-2.28-1.75c-0.17-0.86,0.41-1.77,1.3-2.02
		c1.24-0.36,2.65,0.65,2.56,1.97c-0.06,0.78,0.4,0.96,0.84,1.31c0.43-0.33,0.86-0.85,1.39-0.35c0.43,0.41,0.19,0.9-0.16,1.28
		c1.26,1.15,0.88,1.16,2.33-0.09c-0.31-0.41-0.64-0.89-0.15-1.32c0.55-0.48,0.96,0.05,1.39,0.37c0.4-0.37,0.93-0.52,0.81-1.31
		c-0.14-1,0.86-1.95,1.89-2.04c0.98-0.09,1.79,0.55,1.97,1.53c0.23,1.24-0.95,2.5-2.27,2.3c-0.63-0.09-0.95,0.14-1.28,0.58
		c0.3,0.44,0.93,0.88,0.31,1.45c-0.61,0.56-1.01-0.11-1.5-0.43c-0.35,0.32-0.68,0.64-1.07,0.99c1.27,1.02,2.49,1.99,3.71,2.98
		c1.24,1,2.5,1.98,3.72,3c0.47,0.39,0.83,0.32,1.23-0.06c0.74-0.71,0.91-1.61,0.94-2.57c0-0.08,0-0.19-0.05-0.23
		c-0.69-0.57-0.54-1.35-0.56-2.1c-0.01-0.36-0.11-0.73-0.14-1.09c-0.02-0.22,0.03-0.44,0.05-0.66c0.23,0.05,0.5,0.03,0.67,0.16
		c1.01,0.71,1.79,1.61,2.17,2.81c0.15,0.48,0.22,0.98,0.33,1.46c-0.88,0.26-0.81,0.27-0.94,1.13c-0.13,0.9-0.47,1.77-0.6,2.67
		c-0.09,0.67,0.02,1.36,0.06,2.04c0.01,0.28,0.06,0.55,0.11,0.93c-0.78,0-1.49-0.04-2.19,0.01c-0.37,0.03-0.76,0.14-1.08,0.33
		c-0.82,0.48-1.67,0.86-2.64,0.87c-0.35,0.01-0.5,0.12-0.54,0.49c-0.03,0.19-0.28,0.5-0.43,0.5c-1.54,0.01-2.96-0.35-4.05-1.53
		c-0.2-0.22-0.34-0.49-0.55-0.79c1.14-0.54,2.39,0.34,3.41-0.52c0.55,0.81,1.24,0.51,1.89,0.19c0.47-0.23,0.91-0.54,1.32-0.87
		c0.62-0.49,0.62-0.78,0.02-1.33c-1.32-1.22-2.65-2.43-3.98-3.64c-1.07-0.98-2.13-1.95-3.22-2.95c-1.83,1.67-3.62,3.31-5.41,4.95
		c-0.59,0.54-1.18,1.07-1.75,1.62c-0.47,0.45-0.48,0.77,0.05,1.16c0.53,0.4,1.1,0.79,1.7,1.06
		C334.01,33.37,334.64,33.62,335.02,32.77z M344.26,19.34c-0.09,0.09-0.18,0.18-0.27,0.27c0.81-0.23,1.16-0.56,1.09-1.07
		c-0.06-0.46-0.35-0.72-0.8-0.79c-0.5-0.07-0.92,0.34-1.11,1.06c0.12-0.12,0.24-0.24,0.36-0.36
		C343.78,18.74,344.02,19.04,344.26,19.34z M333.87,19.71c0.3-0.32,0.58-0.61,0.87-0.92c-0.25-0.68-0.63-1.01-1.13-0.93
		c-0.44,0.07-0.68,0.35-0.74,0.77C332.79,19.15,333.08,19.44,333.87,19.71z"/>
</g>
</svg>
